<?xml version="1.0" encoding="UTF-8"?> <svg xmlns="http://www.w3.org/2000/svg" width="1046" height="240" viewBox="0 0 1046 240" fill="none"> <path fill-rule="evenodd" clip-rule="evenodd" d="M214.527 26.4391L208.81 23.6021C177.682 8.1536 143.281 0 107.732 0C72.1822 0 37.7814 8.1536 6.65299 23.6021L0.936571 26.4391L0.510524 32.7771C0.170657 37.833 0 42.9141 0 48.0146C0 124.502 38.6414 194.475 101.575 235.943L107.732 240L113.888 235.943C176.822 194.475 215.463 124.502 215.463 48.0146C215.463 42.9141 215.293 37.833 214.953 32.7771L214.527 26.4391ZM22.4206 40.6582C48.9182 28.5339 77.8567 22.1606 107.732 22.1606C137.606 22.1606 166.545 28.5339 193.043 40.6582C193.13 43.1044 193.174 45.5567 193.174 48.0146C193.174 114.462 160.851 175.431 107.732 213.253C54.6126 175.431 22.2893 114.462 22.2893 48.0146C22.2893 45.5567 22.3331 43.1044 22.4206 40.6582Z" fill="url(#paint0_linear)"></path> <path d="M154.97 66.2811C154.971 66.2689 154.972 66.2567 154.973 66.2444C140.001 61.9271 123.67 59.1072 107.74 59.1072C91.2994 59.1072 75.915 61.6507 60.5073 66.2444C64.5856 103.793 81.358 138.39 107.719 164.903C125.561 146.959 139.007 125.506 147.1 101.875C134.712 98.0448 121.731 96.0718 108.467 96.0718H107.732L107.732 73.891C107.75 73.891 108.503 73.891 108.521 73.891C123.681 73.8962 138.548 76.109 152.767 80.4033C159.887 82.5545 167.431 85.4414 174.149 88.6359C161.052 147.918 120.802 184.482 107.719 195.013C92.0717 182.325 37.1489 132.236 37.1489 50.2314C67.8374 39.1641 85.8532 36.9801 107.74 36.9801C129.068 36.9801 147.857 39.257 178.314 50.222C178.313 58.4699 177.757 66.3959 176.74 73.9941C169.811 70.9364 162.278 68.3831 154.973 66.2795C154.972 66.28 154.971 66.2806 154.97 66.2811Z" fill="white"></path> <path d="M409.671 142.15L380.24 71.7457H356.695L397.899 170.311H409.671H421.444L462.647 71.7457H439.102L409.671 142.15Z" fill="white"></path> <path fill-rule="evenodd" clip-rule="evenodd" d="M955.689 170.311V122.14C955.696 121.781 955.699 121.421 955.699 121.06C955.699 94.0045 936.321 71.7457 906.198 71.7457C876.075 71.7457 857.272 94.0045 857.272 121.06C857.272 148.308 875.691 170.375 906.39 170.375C916.31 170.375 924.969 168.071 932.144 164.031V170.311H955.689ZM880.68 121.06C880.68 106.861 889.506 93.045 906.39 93.045C922.123 93.045 932.1 106.861 932.1 121.06C932.1 135.452 923.466 148.884 906.39 148.884C889.314 148.884 880.68 135.452 880.68 121.06Z" fill="white"></path> <path fill-rule="evenodd" clip-rule="evenodd" d="M359.633 121.06C359.633 94.0045 340.255 71.7457 310.132 71.7457C280.009 71.7457 261.207 94.0045 261.207 121.06C261.207 148.308 279.626 170.375 310.324 170.375C341.022 170.375 359.633 148.308 359.633 121.06ZM284.614 121.06C284.614 106.861 293.44 93.045 310.324 93.045C326.057 93.045 336.034 106.861 336.034 121.06C336.034 135.452 327.4 148.884 310.324 148.884C293.248 148.884 284.614 135.452 284.614 121.06Z" fill="white"></path> <path fill-rule="evenodd" clip-rule="evenodd" d="M717.039 57.4989L708.279 74.3219C703.146 72.6522 697.504 71.7456 691.425 71.7456C661.302 71.7456 642.5 94.0044 642.5 121.06C642.5 148.308 660.919 170.375 691.617 170.375C701.516 170.375 710.158 168.08 717.325 164.057V170.311L717.317 170.313C717.323 170.566 717.327 170.821 717.327 171.079C717.327 185.47 708.222 198.902 690.214 198.902C677.803 198.902 669.687 193.084 664.383 185.246L654.314 204.596C662.773 214.314 675.504 220.393 691.617 220.393C722.315 220.393 740.926 198.326 740.926 171.079C740.926 170.727 740.923 170.378 740.917 170.031V122.14C740.923 121.781 740.926 121.421 740.926 121.06C740.926 107.92 736.356 95.9118 728.203 87.0351L737.924 68.3675L717.039 57.4989ZM665.907 121.06C665.907 106.861 674.733 93.045 691.617 93.045C707.35 93.045 717.327 106.861 717.327 121.06C717.327 135.452 708.693 148.884 691.617 148.884C674.541 148.884 665.907 135.452 665.907 121.06Z" fill="white"></path> <path d="M970.434 71.7457V170.312H994.038L994.005 119.315C994.005 101.718 1005.42 95.1434 1017.8 95.1434C1025.53 95.1434 1029.98 97.2705 1034.82 101.331L1045.46 80.8341C1040.23 75.6131 1030.76 71.7457 1020.89 71.7457C1011.22 71.7457 1001.35 73.4861 994.005 85.2816L994.038 71.7457H970.434Z" fill="white"></path> <path d="M571.792 71.7457V170.312H595.395L595.362 119.315C595.362 101.718 606.775 95.1434 619.154 95.1434C626.891 95.1434 631.34 97.2705 636.175 101.331L646.814 80.8341C641.591 75.6131 632.113 71.7457 622.249 71.7457C612.577 71.7457 602.713 73.4861 595.362 85.2816L595.395 71.7457H571.792Z" fill="white"></path> <path fill-rule="evenodd" clip-rule="evenodd" d="M802.983 149.312C789.958 149.312 780.932 143.979 777.072 135.934L848.288 125.966C850.41 89.8765 831.168 71.7457 800.902 71.7457C770.623 71.7457 751.321 92.1777 751.321 120.555C751.321 150.447 770.434 170.311 802.605 170.311C816.798 170.311 832.883 165.392 842.723 155.176L827.963 140.609C822.664 146.095 811.499 149.312 802.983 149.312ZM825.814 109.841L774.632 117.025C774.634 117.016 774.636 116.962 774.64 116.868C774.663 116.217 774.755 113.617 775.604 110.126C779.07 98.1605 789.242 92.1777 801.658 92.1777C814.722 92.1777 824.105 98.0655 825.814 109.841Z" fill="white"></path> <path fill-rule="evenodd" clip-rule="evenodd" d="M511.616 149.312C498.591 149.312 489.566 143.979 485.705 135.934L556.922 125.966C559.044 89.8765 539.801 71.7457 509.535 71.7457C479.256 71.7457 459.954 92.1777 459.954 120.555C459.954 150.447 479.067 170.311 511.238 170.311C525.431 170.311 541.516 165.392 551.357 155.176L536.596 140.609C531.297 146.095 520.132 149.312 511.616 149.312ZM534.447 109.841L483.265 117.025C483.268 117.016 483.27 116.962 483.273 116.868C483.296 116.217 483.389 113.617 484.238 110.126C487.704 98.1605 497.876 92.1777 510.292 92.1777C523.356 92.1777 532.738 98.0655 534.447 109.841Z" fill="white"></path> <defs> <linearGradient id="paint0_linear" x1="213.851" y1="240" x2="213.851" y2="3.59216" gradientUnits="userSpaceOnUse"> <stop stop-color="#564FFF"></stop> <stop offset="1" stop-color="#FD3F5B"></stop> </linearGradient> </defs> </svg> 