<?xml version="1.0" encoding="UTF-8"?> <svg xmlns="http://www.w3.org/2000/svg" width="202" height="32" viewBox="0 0 202 32" fill="none"> <g clip-path="url(#clip0_593_2300)"> <mask id="mask0_593_2300" style="mask-type:luminance" maskUnits="userSpaceOnUse" x="0" y="0" width="202" height="32"> <path d="M202 0H0V32H202V0Z" fill="white"></path> </mask> <g mask="url(#mask0_593_2300)"> <path d="M13.6705 0L0 17.9789H13.6705V0Z" fill="white"></path> <path d="M14.7061 30.9993V1.03906H200.964V30.9993H14.7061Z" fill="white" stroke="white" stroke-width="2"></path> <path d="M78.1533 11.0608H80.6502V16.6096L87.6416 10.9414V21.6611H85.1447V16.1124L78.1533 21.7805V11.0608Z" fill="black"></path> <path d="M86.4343 8C86.4343 9.47172 85.3107 10.6252 83.5628 10.6252C81.815 10.6252 80.6914 9.47172 80.6914 8H82.1895C82.1895 8.75575 82.5641 9.35239 83.5628 9.35239C84.5616 9.35239 84.9361 8.77564 84.9361 8H86.4343Z" fill="black"></path> <path d="M31.3572 13.3497H27.1542V21.6629H24.6572V11.0625H33.8541V21.6629H31.3572V13.3497Z" fill="black"></path> <path d="M36.2256 11.0625H43.092V13.4093H38.7225V15.1993H42.1557V17.5063H38.7225V19.2962H43.092V21.6629H36.2256V11.0625Z" fill="black"></path> <path fill-rule="evenodd" clip-rule="evenodd" d="M48.794 11.0625H45.1318V21.6629H47.6288V18.262H48.794C50.958 18.262 52.581 16.6511 52.581 14.6623C52.581 12.6735 50.958 11.0625 48.794 11.0625ZM50.1673 14.6623C50.1673 15.3783 49.5431 16.0346 48.7524 16.0346H47.6288V13.3099H48.7524C49.5639 13.3099 50.1673 13.9463 50.1673 14.6623Z" fill="black"></path> <path fill-rule="evenodd" clip-rule="evenodd" d="M58.2197 11.0625C60.03 11.0625 61.5073 12.4746 61.5073 14.2049C61.5073 14.9606 61.216 15.5573 60.7166 16.0346C61.653 16.5119 62.2772 17.387 62.2772 18.5206C62.2772 20.2708 60.7999 21.6629 58.9272 21.6629H54.0374V11.0625H58.2197ZM57.9492 15.3385C58.6151 15.3385 59.1145 14.8811 59.1145 14.2844C59.1145 13.7077 58.6359 13.2304 57.9492 13.2304H56.5551V15.3385H57.9492ZM58.7191 19.4553C59.385 19.4553 59.8844 18.9979 59.8844 18.4013C59.8844 17.8245 59.4058 17.3472 58.7191 17.3472H56.5551V19.4553H58.7191Z" fill="black"></path> <path fill-rule="evenodd" clip-rule="evenodd" d="M71.9109 18.2024C71.9109 16.2335 70.2879 14.7617 68.1239 14.7617H66.501V11.0625H64.004V21.643H68.1239C70.2879 21.643 71.9109 20.1912 71.9109 18.2024ZM69.4972 18.2024C69.4972 18.9979 68.8938 19.4156 68.0824 19.4156H66.4801V16.9693H68.0824C68.8938 16.9693 69.4972 17.4069 69.4972 18.2024Z" fill="black"></path> <path d="M75.7811 11.0625H73.2842V21.6629H75.7811V11.0625Z" fill="black"></path> <path d="M99.4391 16.2316L93.9043 10.9414V21.6611H96.4011V16.4504L99.4391 19.354L102.456 16.4504V21.6611H104.953V10.9414L99.4391 16.2316Z" fill="black"></path> <path d="M107.346 11.0625H114.213V13.4093H109.843V15.1993H113.276V17.5063H109.843V19.2962H114.213V21.6629H107.346V11.0625Z" fill="black"></path> <path fill-rule="evenodd" clip-rule="evenodd" d="M120.705 14.901H118.75V13.4292H123.556V11.0625H116.252V21.6629H120.705C122.869 21.6629 124.493 20.1912 124.493 18.2819C124.493 16.3727 122.869 14.901 120.705 14.901ZM122.079 18.2819C122.079 18.9979 121.475 19.4156 120.664 19.4156H118.75V17.1284H120.664C121.475 17.1284 122.079 17.566 122.079 18.2819Z" fill="black"></path> <path d="M126.178 11.0625H133.044V13.4093H128.674V15.1993H132.107V17.5063H128.674V19.2962H133.044V21.6629H126.178V11.0625Z" fill="black"></path> <path d="M144.946 21.6611L139.473 10.9414L134.021 21.6611H136.664L139.473 16.0924L142.303 21.6611H144.946Z" fill="black"></path> <path fill-rule="evenodd" clip-rule="evenodd" d="M150.252 14.7617C152.416 14.7617 154.038 16.2335 154.038 18.2024C154.038 20.1912 152.416 21.643 150.252 21.643H146.132V11.0625H148.628V14.7617H150.252ZM150.231 19.4156C151.042 19.4156 151.646 18.9979 151.646 18.2024C151.646 17.4069 151.042 16.9693 150.231 16.9693H148.628V19.4156H150.231Z" fill="black"></path> <path d="M158.054 11.0625H155.558V21.6629H158.054V17.5063H162.508V21.6629H165.004V11.0625H162.508V15.1993H158.054V11.0625Z" fill="black"></path> <path fill-rule="evenodd" clip-rule="evenodd" d="M171.496 14.7617C173.66 14.7617 175.283 16.2335 175.283 18.2024C175.283 20.1912 173.66 21.643 171.496 21.643H167.376V11.0625H169.873V14.7617H171.496ZM171.454 19.4156C172.266 19.4156 172.869 18.9979 172.869 18.2024C172.869 17.4069 172.266 16.9693 171.454 16.9693H169.852V19.4156H171.454Z" fill="black"></path> <path d="M176.657 11.0625H179.154V21.6629H176.657V11.0625Z" fill="black"></path> <path d="M184.022 11.0608H181.525V21.7805L188.517 16.1124V21.6611H191.013V10.9414L184.022 16.6096V11.0608Z" fill="black"></path> <path d="M186.935 10.6252C188.684 10.6252 189.806 9.47172 189.806 8H188.309C188.309 8.77564 187.934 9.35239 186.935 9.35239C185.936 9.35239 185.562 8.75575 185.562 8H184.063C184.063 9.47172 185.187 10.6252 186.935 10.6252Z" fill="black"></path> </g> </g> <defs> <clipPath id="clip0_593_2300"> <rect width="202" height="32" fill="white"></rect> </clipPath> </defs> </svg> 