<?xml version="1.0" encoding="UTF-8"?> <svg xmlns="http://www.w3.org/2000/svg" width="167" height="41" viewBox="0 0 167 41" fill="none"> <g clip-path="url(#clip0_2574_281)"> <path d="M16.767 40.1274L5.16797 33.4825L9.33185 31.0971L18.849 36.5494C19.2003 36.7505 19.6332 36.7505 19.9846 36.5494L29.6149 31.0322L33.7786 33.4178L22.0665 40.1274C20.4268 41.0667 18.4067 41.0667 16.767 40.1274Z" fill="#E5E5E6"></path> <path d="M29.1247 25.9591L19.5121 20.4521L9.89941 25.9591V30.6929L19.579 25.1474L29.1247 30.616V25.9591Z" fill="#E5E5E6"></path> <path d="M39.0212 11.2637V24.5536L34.8572 22.1681V11.2637C34.8572 10.8611 34.6408 10.4891 34.2896 10.2879L24.6592 4.77084V0L36.3713 6.70972C38.0111 7.64906 39.0212 9.38505 39.0212 11.2637Z" fill="#E5E5E6"></path> <path d="M20.4771 7.72792V18.7419L30.0897 24.2488L34.2211 21.882L24.5416 16.3367V5.39941L20.4771 7.72792Z" fill="#E5E5E6"></path> <path d="M1.28453e-06 11.2637L0 24.5536L4.16388 22.1681V11.2637C4.16388 10.8611 4.38032 10.4891 4.73168 10.2879L14.3619 4.77084V0L2.64974 6.70972C1.01008 7.64906 1.82103e-06 9.38505 1.28453e-06 11.2637Z" fill="#E5E5E6"></path> <path d="M18.5444 7.72792V18.7419L8.93174 24.2488L4.80029 21.882L14.4799 16.3367V5.39941L18.5444 7.72792Z" fill="#E5E5E6"></path> <path d="M71.7763 18.3978C71.7763 19.2969 71.647 20.0217 71.388 20.5722C71.1292 21.1044 70.6484 21.5172 69.9457 21.8108C69.2428 22.0861 68.2627 22.2696 67.0054 22.3613C65.7663 22.4531 63.6735 22.4989 61.6762 22.4989H59.6141C57.8573 22.4989 56.4426 22.4439 55.37 22.3338C54.2974 22.2237 53.4654 21.9943 52.8734 21.6457C52.2816 21.297 51.8842 20.8016 51.6808 20.1594C51.4958 19.5171 51.4033 18.673 51.4033 17.6271V16.9115H55.7584V17.517C55.7584 17.9024 55.7952 18.2051 55.8693 18.4253C55.9433 18.6455 56.1189 18.8107 56.3963 18.9208C56.6738 19.0125 57.0712 19.0767 57.5892 19.1134C58.1254 19.1318 58.8465 19.1409 59.7528 19.1409H61.5652C62.7119 19.1409 64.102 19.1318 64.7862 19.1134C65.4704 19.0767 65.9882 19.0125 66.3396 18.9208C66.7095 18.829 66.9498 18.6914 67.0607 18.5079C67.1717 18.3061 67.2272 18.0491 67.2272 17.7372V17.462C67.2272 17.1684 67.181 16.939 67.0885 16.7739C67.0145 16.5904 66.8758 16.4527 66.6724 16.361C66.469 16.2692 66.1916 16.2142 65.8403 16.1959C65.5073 16.1775 65.0821 16.1683 64.5643 16.1683H60.5421V12.9755H64.5919C65.4798 12.9755 66.0806 12.8838 66.395 12.7003C66.7095 12.5168 66.8667 12.1498 66.8667 11.5993V11.2965C66.8667 11.0213 66.8018 10.7919 66.6724 10.6084C66.5615 10.4249 66.3303 10.2873 65.979 10.1955C65.646 10.1038 65.1561 10.0396 64.5088 10.0028C63.8801 9.96617 62.5825 9.94782 61.5652 9.94782H59.7528C58.8465 9.94782 58.1254 9.95699 57.5892 9.97535C57.0712 9.9937 56.6738 10.0579 56.3963 10.168C56.1189 10.2781 55.9433 10.4433 55.8693 10.6634C55.7952 10.8836 55.7584 11.1864 55.7584 11.5718V12.0672H51.4865V11.4616C51.4865 10.4157 51.5789 9.57164 51.7639 8.92941C51.9488 8.28717 52.3278 7.79173 52.9012 7.44308C53.4929 7.09446 54.3159 6.86508 55.37 6.75499C56.4426 6.64488 57.8573 6.58984 59.6141 6.58984H61.6762C63.6179 6.58984 65.6645 6.6357 66.8667 6.72746C68.0871 6.8192 69.0303 7.01188 69.6958 7.30546C70.3801 7.58073 70.8334 7.98441 71.0552 8.51655C71.2955 9.03034 71.4158 9.70926 71.4158 10.5533V10.9112C71.4158 11.5718 71.3695 12.1131 71.2771 12.5351C71.203 12.9388 71.0552 13.2691 70.8334 13.526C70.63 13.7645 70.3432 13.9572 69.9733 14.104C69.6221 14.2324 69.1781 14.3517 68.6419 14.4618V14.5444C69.1966 14.6361 69.6683 14.7462 70.0567 14.8747C70.445 14.9848 70.7684 15.1591 71.0274 15.3976C71.2864 15.6362 71.4714 15.9481 71.5823 16.3335C71.7117 16.7188 71.7763 17.2051 71.7763 17.7923V18.3978Z" fill="white"></path> <path d="M89.8642 22.2347H74.4009V6.71094H79.0611V18.629H89.8642V22.2347Z" fill="white"></path> <path d="M101.711 22.498C100.213 22.498 99.3936 22.4613 98.3026 22.3878C97.23 22.3328 96.3146 22.2135 95.5563 22.0301C94.798 21.8282 94.1787 21.553 93.6979 21.2043C93.2355 20.8557 92.875 20.3969 92.616 19.8281C92.3572 19.2593 92.1814 18.562 92.0889 17.7362C91.9964 16.9105 91.9502 15.9196 91.9502 14.7636V14.3232C91.9502 13.1672 91.9964 12.1763 92.0889 11.3506C92.1814 10.5248 92.3572 9.82757 92.616 9.25872C92.875 8.67154 93.2355 8.20363 93.6979 7.85499C94.1787 7.50634 94.798 7.24028 95.5563 7.05678C96.3146 6.87328 97.23 6.75401 98.3026 6.69896C99.3936 6.62557 100.213 6.58887 101.711 6.58887H102.398C103.896 6.58887 104.706 6.62557 105.779 6.69896C106.87 6.75401 107.795 6.87328 108.553 7.05678C109.311 7.24028 109.922 7.50634 110.384 7.85499C110.864 8.20363 111.234 8.67154 111.493 9.25872C111.752 9.82757 111.928 10.5248 112.02 11.3506C112.113 12.1763 112.159 13.1672 112.159 14.3232V14.7636C112.159 15.9196 112.113 16.9105 112.02 17.7362C111.928 18.562 111.752 19.2684 111.493 19.8556C111.234 20.4245 110.864 20.8832 110.384 21.2318C109.922 21.5805 109.311 21.8466 108.553 22.0301C107.795 22.2135 106.87 22.3328 105.779 22.3878C104.706 22.4613 103.896 22.498 102.398 22.498H101.711ZM102.232 18.8923C103.582 18.8923 104.161 18.8556 104.919 18.7822C105.696 18.7088 106.269 18.5344 106.639 18.2592C107.027 17.9656 107.259 17.5344 107.332 16.9656C107.425 16.3967 107.471 15.626 107.471 14.6535V14.4058C107.471 13.4149 107.425 12.635 107.332 12.0662C107.259 11.479 107.027 11.0478 106.639 10.7726C106.269 10.479 105.696 10.2955 104.919 10.2221C104.161 10.1487 103.582 10.112 102.232 10.112H101.878C100.509 10.112 99.9207 10.1487 99.1624 10.2221C98.4042 10.2955 97.8309 10.479 97.4425 10.7726C97.0728 11.0478 96.8416 11.479 96.7492 12.0662C96.6751 12.635 96.6382 13.4149 96.6382 14.4058V14.6535C96.6382 15.626 96.6751 16.3967 96.7492 16.9656C96.8416 17.5344 97.0728 17.9656 97.4425 18.2592C97.8309 18.5344 98.4042 18.7088 99.1624 18.7822C99.9207 18.8556 100.509 18.8923 101.878 18.8923H102.232Z" fill="white"></path> <path d="M125.027 22.498C122.807 22.498 121.032 22.4154 119.701 22.2502C118.369 22.0667 117.343 21.6998 116.622 21.1493C115.919 20.5988 115.456 19.8189 115.235 18.8097C115.013 17.7821 114.902 16.4334 114.902 14.7636V14.3232C114.902 13.2039 114.948 12.2314 115.041 11.4056C115.133 10.5799 115.309 9.88261 115.568 9.31378C115.845 8.74495 116.215 8.28619 116.677 7.93757C117.14 7.57057 117.74 7.28616 118.48 7.08431C119.238 6.88246 120.154 6.75401 121.226 6.69896C122.299 6.62557 123.566 6.58887 125.027 6.58887H126.205C128.055 6.58887 129.552 6.6531 130.699 6.78154C131.864 6.90998 132.77 7.15769 133.417 7.52469C134.083 7.87334 134.536 8.37796 134.777 9.03854C135.017 9.68078 135.137 10.5157 135.137 11.5433V11.6777H130.616C130.616 11.1502 130.277 10.6876 129.784 10.4973C129.451 10.3505 128.979 10.2496 128.369 10.1946C127.777 10.1212 127 10.0845 126.039 10.0845H125.193C123.862 10.0845 122.817 10.1212 122.059 10.1946C121.3 10.268 120.736 10.4515 120.366 10.745C119.996 11.0386 119.765 11.479 119.673 12.0662C119.581 12.635 119.534 13.4149 119.534 14.4058V14.681C119.534 15.6536 119.581 16.4243 119.673 16.9931C119.765 17.5436 119.996 17.9656 120.366 18.2592C120.736 18.5528 121.3 18.7363 122.059 18.8097C122.817 18.8831 123.862 18.9198 125.193 18.9198H126.039C127.112 18.9198 127.962 18.8923 128.591 18.8372C129.238 18.7822 129.728 18.6813 130.061 18.5344C130.394 18.3693 130.606 18.1583 130.699 17.9014C130.791 17.6445 130.838 17.305 130.838 16.883V16.4701H127.023L127.051 13.4424H135.304V16.9105C135.304 18.0482 135.183 18.9748 134.943 19.6905C134.703 20.4061 134.25 20.9749 133.584 21.397C132.918 21.819 131.993 22.1126 130.81 22.2778C129.626 22.4246 128.092 22.498 126.205 22.498H125.027Z" fill="white"></path> <path d="M143.527 22.2347H138.839V6.71094H143.527V22.2347Z" fill="white"></path> <path d="M156.738 22.498C154.574 22.498 152.827 22.4154 151.495 22.2502C150.164 22.0851 149.128 21.7364 148.388 21.2043C147.667 20.6538 147.186 19.874 146.946 18.8647C146.705 17.8372 146.585 16.4701 146.585 14.7636V14.3232C146.585 12.635 146.696 11.2864 146.918 10.2771C147.159 9.24955 147.639 8.46969 148.361 7.93757C149.082 7.38707 150.108 7.02925 151.44 6.8641C152.771 6.6806 154.537 6.58887 156.738 6.58887H157.917C159.84 6.58887 161.384 6.66228 162.549 6.80907C163.733 6.95587 164.639 7.22193 165.267 7.60728C165.896 7.9926 166.312 8.52475 166.516 9.20369C166.719 9.86428 166.821 10.7175 166.821 11.7635V12.1488H162.299C162.299 11.7818 162.262 11.4699 162.188 11.213C162.114 10.9561 161.92 10.745 161.606 10.5799C161.31 10.4148 160.857 10.2955 160.247 10.2221C159.655 10.1487 158.823 10.112 157.75 10.112H156.904C155.591 10.112 154.556 10.1487 153.797 10.2221C153.058 10.2955 152.494 10.479 152.105 10.7726C151.736 11.0478 151.504 11.4699 151.412 12.0387C151.319 12.6075 151.273 13.3966 151.273 14.4058V14.681C151.273 15.6719 151.319 16.4518 151.412 17.0206C151.504 17.5711 151.736 17.984 152.105 18.2592C152.494 18.5344 153.058 18.7088 153.797 18.7822C154.556 18.8556 155.591 18.8923 156.904 18.8923H157.584C158.693 18.8923 159.563 18.8647 160.191 18.8097C160.82 18.7363 161.292 18.617 161.606 18.4519C162.056 18.2156 162.327 17.694 162.327 17.2L162.327 16.8389H166.821V17.2958C166.821 18.2867 166.719 19.1216 166.516 19.8006C166.312 20.4611 165.887 20.9933 165.24 21.397C164.592 21.8007 163.668 22.0851 162.466 22.2502C161.282 22.4154 159.71 22.498 157.75 22.498H156.738Z" fill="white"></path> <path d="M61.8127 32.4001C61.8127 33.2172 61.7617 33.8736 61.6599 34.3696C61.5583 34.8652 61.3316 35.2462 60.9799 35.5124C60.6375 35.7787 60.1333 35.9578 59.467 36.0496C58.8101 36.1323 57.9264 36.1736 56.8162 36.1736H51.4033V28.4062H56.8162C57.908 28.4062 58.7823 28.4475 59.4392 28.5302C60.0962 28.6037 60.6006 28.7735 60.9521 29.0398C61.3038 29.2968 61.535 29.6777 61.6461 30.1829C61.7571 30.6786 61.8127 31.3443 61.8127 32.1797V32.4001ZM56.6219 34.3696C57.2882 34.3696 57.8108 34.351 58.1903 34.3144C58.5789 34.2685 58.8704 34.1768 59.0647 34.0389C59.259 33.892 59.3792 33.6855 59.4255 33.4192C59.4811 33.1437 59.5088 32.781 59.5088 32.3313V32.1934C59.5088 31.7343 59.4811 31.3717 59.4255 31.1054C59.3792 30.8301 59.259 30.6234 59.0647 30.4858C58.8704 30.3481 58.5789 30.2608 58.1903 30.2242C57.8108 30.1783 57.2882 30.1553 56.6219 30.1553H53.7349V34.3696H56.6219Z" fill="white"></path> <path d="M66.1369 36.1736H63.7915V28.4062H66.1369V36.1736Z" fill="white"></path> <path d="M77.8532 33.8182C77.8532 34.3048 77.8023 34.7043 77.7005 35.0165C77.608 35.3286 77.4044 35.581 77.0898 35.7738C76.7752 35.9575 76.3264 36.0861 75.7435 36.1596C75.1699 36.2328 74.4065 36.2697 73.4534 36.2697H73.0926C71.9824 36.2697 71.1034 36.2375 70.4555 36.1733C69.808 36.1181 69.3175 36.0034 68.9845 35.8289C68.6606 35.6544 68.4523 35.4157 68.3598 35.1129C68.2767 34.8007 68.2349 34.4012 68.2349 33.9146V33.6254H70.5389V33.8321C70.5389 33.9973 70.5667 34.1303 70.6221 34.2314C70.6776 34.3231 70.7888 34.3966 70.9553 34.4518C71.1218 34.5069 71.3577 34.5435 71.6632 34.5621C71.9777 34.5804 72.3941 34.5894 72.9121 34.5894H73.2038C73.7589 34.5894 74.1937 34.5804 74.5083 34.5621C74.8322 34.5435 75.0728 34.5069 75.2299 34.4518C75.3873 34.3966 75.4845 34.3231 75.5214 34.2314C75.5585 34.1396 75.577 34.0203 75.577 33.8734V33.8321C75.577 33.6759 75.5538 33.552 75.5076 33.4602C75.4707 33.3592 75.3689 33.2857 75.2024 33.2398C75.0356 33.1847 74.7813 33.1481 74.4389 33.1298C74.1059 33.1115 73.6433 33.1022 73.0511 33.1022C72.3292 33.1022 71.7094 33.0929 71.1912 33.0746C70.6823 33.047 70.2475 33.0011 69.8867 32.937C69.5349 32.8635 69.2528 32.7717 69.0399 32.6614C68.8365 32.5514 68.6744 32.4091 68.5541 32.2346C68.4432 32.0601 68.3691 31.8536 68.332 31.6147C68.3042 31.367 68.2904 31.0778 68.2904 30.7471V30.6922C68.2904 30.2056 68.3414 29.8107 68.4432 29.5076C68.545 29.1955 68.7437 28.9521 69.0399 28.7779C69.3453 28.5941 69.7708 28.4702 70.3168 28.406C70.8719 28.3418 71.5938 28.3096 72.4819 28.3096H72.9539C74.0272 28.3096 74.8738 28.3508 75.4938 28.4335C76.1136 28.507 76.5809 28.6356 76.8955 28.8191C77.2194 28.9936 77.4228 29.2277 77.5062 29.5215C77.5896 29.8153 77.6311 30.178 77.6311 30.6095V30.8435H75.3271V30.7195C75.3271 30.5819 75.3086 30.4626 75.2717 30.3615C75.2346 30.2605 75.1468 30.1826 75.0081 30.1275C74.8785 30.0633 74.6795 30.0172 74.4112 29.9898C74.1428 29.9623 73.7727 29.9483 73.3009 29.9483H72.9539C72.3988 29.9483 71.9637 29.9576 71.6491 29.9759C71.3346 29.9942 71.0987 30.0311 70.9413 30.0862C70.7841 30.1321 70.6823 30.2056 70.6361 30.3064C70.5989 30.3984 70.5805 30.5267 70.5805 30.6922V30.7335C70.5805 30.8711 70.5989 30.9858 70.6361 31.0778C70.6823 31.1603 70.7932 31.2247 70.9691 31.2706C71.1449 31.3072 71.4133 31.3348 71.7741 31.3531C72.1442 31.3624 72.6484 31.367 73.2869 31.367C74.2862 31.367 75.0865 31.3943 75.6881 31.4495C76.2895 31.5046 76.7474 31.6193 77.062 31.7938C77.3859 31.9591 77.5987 32.2024 77.7005 32.5238C77.8023 32.8359 77.8532 33.2491 77.8532 33.7633V33.8182Z" fill="white"></path> <path d="M84.9862 36.1736H82.6686V30.1553H79.2959V28.4062H88.3729V30.1553H84.9862V36.1736Z" fill="white"></path> <path d="M95.1533 32.3174C95.5512 32.3174 95.8705 32.3083 96.111 32.2898C96.3515 32.2624 96.5321 32.2119 96.6523 32.1385C96.782 32.065 96.8651 31.9593 96.9022 31.8217C96.9391 31.6841 96.9576 31.5049 96.9576 31.2845V31.1469C96.9576 30.9265 96.9391 30.752 96.9022 30.6234C96.8651 30.4858 96.782 30.3801 96.6523 30.3066C96.5321 30.2242 96.3515 30.1736 96.111 30.1553C95.8705 30.1278 95.5512 30.1139 95.1533 30.1139H92.2525V32.3174H95.1533ZM99.3032 36.1736H96.9994V35.54C96.9994 35.2003 96.9716 34.9294 96.916 34.7276C96.8698 34.5255 96.7633 34.3739 96.5968 34.2732C96.4302 34.1628 96.185 34.094 95.8611 34.0664C95.5466 34.0298 95.1211 34.0113 94.5844 34.0113H92.2525V36.1736H89.9487V28.4062H96.0832C96.731 28.4062 97.263 28.4475 97.6794 28.5302C98.0958 28.6037 98.4242 28.7323 98.6647 28.9158C98.9052 29.0993 99.072 29.3427 99.1645 29.6458C99.257 29.9396 99.3032 30.3113 99.3032 30.7613V31.0366C99.3032 31.6426 99.1969 32.1063 98.9839 32.4277C98.7805 32.7491 98.4288 32.9692 97.9291 33.0885V33.13C98.2067 33.1759 98.4335 33.2355 98.6094 33.3089C98.7943 33.3734 98.9377 33.4744 99.0395 33.612C99.1414 33.7497 99.2107 33.9288 99.2476 34.1492C99.2847 34.3696 99.3032 34.6495 99.3032 34.9892V36.1736Z" fill="white"></path> <path d="M103.733 36.1736H101.387V28.4062H103.733V36.1736Z" fill="white"></path> <path d="M105.9 36.1736V28.4062H112.271C112.872 28.4062 113.372 28.4385 113.77 28.5026C114.177 28.5668 114.501 28.6771 114.741 28.8331C114.982 28.98 115.153 29.1774 115.255 29.4254C115.357 29.6733 115.408 29.9808 115.408 30.3481C115.408 30.8897 115.31 31.2938 115.116 31.5601C114.922 31.8263 114.654 32.0099 114.311 32.1109V32.1385C114.746 32.2119 115.079 32.3908 115.31 32.6756C115.542 32.9602 115.657 33.378 115.657 33.9288C115.657 34.3696 115.602 34.7366 115.491 35.0304C115.38 35.315 115.209 35.5446 114.977 35.7191C114.746 35.8844 114.455 36.0037 114.103 36.0772C113.751 36.1413 113.335 36.1736 112.854 36.1736H105.9ZM112.451 34.5209C112.803 34.5209 113.044 34.4567 113.173 34.3281C113.312 34.1904 113.381 33.9884 113.381 33.7221C113.381 33.4468 113.312 33.2494 113.173 33.13C113.044 33.0107 112.803 32.9509 112.451 32.9509H108.204V34.5209H112.451ZM112.396 31.4637C112.636 31.4637 112.821 31.4132 112.951 31.3121C113.09 31.2111 113.159 31.0229 113.159 30.7474C113.159 30.4536 113.09 30.2564 112.951 30.1553C112.821 30.0543 112.636 30.0038 112.396 30.0038H108.204V31.4637H112.396Z" fill="white"></path> <path d="M122.235 36.27C121.272 36.27 120.481 36.2331 119.861 36.1599C119.251 36.0772 118.769 35.9302 118.418 35.7191C118.066 35.4988 117.821 35.2049 117.682 34.8376C117.553 34.4703 117.488 33.9976 117.488 33.4192V28.4062H119.82V32.6756C119.82 33.0702 119.843 33.387 119.889 33.6257C119.945 33.8644 120.056 34.0481 120.222 34.1768C120.389 34.2961 120.629 34.3739 120.944 34.4108C121.268 34.4474 121.702 34.466 122.248 34.466H122.443C122.989 34.466 123.424 34.4474 123.747 34.4108C124.071 34.3649 124.316 34.2822 124.483 34.1628C124.65 34.0342 124.756 33.8553 124.802 33.6257C124.848 33.387 124.871 33.0702 124.871 32.6756V28.4062H127.203V33.4192C127.203 33.9976 127.139 34.4703 127.009 34.8376C126.879 35.2049 126.639 35.4988 126.287 35.7191C125.945 35.9302 125.464 36.0772 124.844 36.1599C124.233 36.2331 123.442 36.27 122.47 36.27H122.235Z" fill="white"></path> <path d="M134.482 36.1736H132.165V30.1553H128.792V28.4062H137.869V30.1553H134.482V36.1736Z" fill="white"></path> <path d="M141.79 36.1736H139.444V28.4062H141.79V36.1736Z" fill="white"></path> <path d="M148.898 36.2697C148.149 36.2697 147.501 36.2514 146.955 36.2145C146.419 36.1869 145.96 36.1274 145.581 36.0356C145.202 35.9346 144.892 35.797 144.651 35.6225C144.42 35.448 144.239 35.2183 144.11 34.9338C143.981 34.6492 143.892 34.3002 143.846 33.887C143.8 33.4741 143.777 32.9782 143.777 32.3998V32.1794C143.777 31.601 143.8 31.1051 143.846 30.6922C143.892 30.279 143.981 29.93 144.11 29.6455C144.239 29.3517 144.42 29.1176 144.651 28.9431C144.892 28.7686 145.202 28.6356 145.581 28.5436C145.96 28.4518 146.419 28.3923 146.955 28.3647C147.501 28.3279 148.149 28.3096 148.898 28.3096H149.259C150.008 28.3096 150.652 28.3279 151.188 28.3647C151.734 28.3923 152.197 28.4518 152.576 28.5436C152.956 28.6356 153.261 28.7686 153.492 28.9431C153.733 29.1176 153.918 29.3517 154.047 29.6455C154.177 29.93 154.265 30.279 154.311 30.6922C154.357 31.1051 154.38 31.601 154.38 32.1794V32.3998C154.38 32.9782 154.357 33.4741 154.311 33.887C154.265 34.3002 154.177 34.6538 154.047 34.9477C153.918 35.2322 153.733 35.4616 153.492 35.6361C153.261 35.8106 152.956 35.9436 152.576 36.0356C152.197 36.1274 151.734 36.1869 151.188 36.2145C150.652 36.2514 150.008 36.2697 149.259 36.2697H148.898ZM149.176 34.4657C149.851 34.4657 150.379 34.4471 150.758 34.4105C151.147 34.3737 151.434 34.2865 151.618 34.1489C151.813 34.002 151.929 33.7862 151.966 33.5014C152.012 33.2169 152.035 32.8313 152.035 32.3447V32.2207C152.035 31.725 152.012 31.3348 151.966 31.0502C151.929 30.7564 151.813 30.5407 151.618 30.4028C151.434 30.2561 151.147 30.1641 150.758 30.1275C150.379 30.0906 149.851 30.0723 149.176 30.0723H148.982C148.297 30.0723 147.765 30.0906 147.385 30.1275C147.006 30.1641 146.719 30.2561 146.525 30.4028C146.34 30.5407 146.224 30.7564 146.178 31.0502C146.141 31.3348 146.122 31.725 146.122 32.2207V32.3447C146.122 32.8313 146.141 33.2169 146.178 33.5014C146.224 33.7862 146.34 34.002 146.525 34.1489C146.719 34.2865 147.006 34.3737 147.385 34.4105C147.765 34.4471 148.297 34.4657 148.982 34.4657H149.176Z" fill="white"></path> <path d="M166.754 36.1736H163.27L158.69 30.3618H158.635V36.1736H156.358V28.4062H159.898L164.422 34.218H164.464V28.4062H166.754V36.1736Z" fill="white"></path> </g> <defs> <clipPath id="clip0_2574_281"> <rect width="167" height="41" fill="white"></rect> </clipPath> </defs> </svg> 