<?xml version="1.0" encoding="UTF-8"?> <!-- Generator: Adobe Illustrator 23.0.1, SVG Export Plug-In . SVG Version: 6.00 Build 0) --> <svg xmlns="http://www.w3.org/2000/svg" xmlns:xlink="http://www.w3.org/1999/xlink" id="Layer_1" x="0px" y="0px" viewBox="0 0 623.4 294" style="enable-background:new 0 0 623.4 294;" xml:space="preserve"> <style type="text/css"> .st0{fill:#FF0033;} .st1{fill:#FFFFFF;} </style> <g> <path class="st0" d="M243.8,0.1c-0.5,0-2.5,0.1-4.4,0.2C208.3,2,171.3,10.4,136.5,23.5C95,39.2,58.6,60.2,31.5,84.2 c-3.4,3.1-13,12.6-15.7,15.7C11.3,105,7,110.8,4,115.5c-1.7,2.7-3.9,6.6-3.9,6.9c0,0.1,2-1.7,4.4-4.1C15.6,107.3,29,96.8,45,86.6 C93.8,55.3,158.1,33,212.6,28.5c8.1-0.7,10.2-0.8,20.4-0.8c10.6,0,13.2,0.1,20.4,0.9c16.4,1.7,30.5,5.8,40.9,11.8 c8.5,4.9,14.7,11.2,18.2,18.6c5.4,11.4,4.6,24.6-2.6,39.5c-0.7,1.5-1.2,2.6-1.1,2.6c0.3,0,5.4-5.7,8.1-9 c10.8-13.2,17.4-26,19.4-37.8c0.5-2.9,0.7-8.5,0.4-11.3c-1.5-13.8-10-24.8-24.9-32.3C299.7,4.6,284.1,1.1,264.9,0 C261.6,0,246.3-0.1,243.8,0.1"></path> <path class="st1" d="M105.8,77.4c-0.4,0-1.6,0.2-2.7,0.3c-5.8,0.6-12.4,2.2-17.9,4.5C75.9,86,68.1,92.3,63.5,99.7 c-3.5,5.6-5.6,12.3-5.9,18.7c-0.4,9.9,4.3,17.1,14.5,22.3c4.3,2.2,8.2,3.6,18.4,6.6c3.5,1,7.1,2.1,8,2.4c5.8,2,9.2,4.1,10.6,6.7 c1.6,3,0.5,7.6-2.8,10.9c-2.8,2.8-7.3,4.8-12.6,5.4c-2.6,0.3-8,0.1-10.3-0.3c-4.5-1-7.4-2.9-8.9-6c-1-2.1-1.3-3.6-1.1-6.9 c0.1-1.6,0.2-3.2,0.2-3.5l0.1-0.6H59.6l-14.1,0.1l-0.2,1.2c-2,10.8-0.8,19.1,3.7,25.9c1.3,2,4.6,5.2,6.9,6.7 c6.9,4.6,15.8,6.8,27.2,6.8c9.7,0,18.1-1.4,25.8-4.2c3-1.1,7.9-3.5,10.4-5.2c10.3-6.8,17-17,19.6-29.8c1.2-6.1,0.7-11.8-1.6-16.4 c-1.2-2.5-2.3-4-4.5-6.1c-5.1-4.8-11.8-7.8-27.1-12c-10.8-2.9-14.6-4.5-17-6.9c-1-1.1-1.5-2-1.6-3.5c-0.3-4,3.1-8.3,7.8-10.1 c4.3-1.6,10.6-1.8,15-0.4c3.8,1.2,6.4,3.5,7.2,6.5c0.3,1.2,0.3,3.6,0,5.1l-0.2,1.2H145l0.2-1.1c1.4-7.3,0.8-14.2-1.8-19.5 c-1.3-2.7-2.7-4.6-5-6.8c-4.8-4.6-11.9-7.7-20.5-8.9C115.9,77.5,107.4,77.2,105.8,77.4"></path> <path class="st1" d="M165.1,79.8c0,0-5.8,25.6-12.9,56.8c-7.1,31.2-12.9,56.8-12.9,56.8c0,0.1,13.3,0.1,29.5,0 c32.1-0.1,30.4,0,36.6-1.1c16.8-3.1,28.1-12.3,33.6-27.4c1-2.7,2-6.5,2.4-9.1c0.4-2.5,0.4-7.4,0-9.6c-1.4-7.2-5.3-12.1-11.6-14.6 l-1-0.4l0.8-0.4c1.4-0.7,4-2.4,5.5-3.5c1.7-1.3,4.9-4.3,6.3-6.1c3.5-4.3,5.8-9.3,6.8-14.8c2.3-13.4-3.1-21.8-16.4-25.2 c-2.4-0.6-5.8-1.1-8.8-1.4C220.8,79.7,165.1,79.6,165.1,79.8 M212.7,103.1c2.8,0.6,4.8,2.1,5.7,4.3c0.3,0.9,0.4,1.4,0.4,3.1 c0,6.6-4,11.6-10.5,13.5c-1.4,0.4-1.7,0.4-13.2,0.5c-6.5,0-11.8,0-11.8,0c0-0.1,1-4.7,2.3-10.3c1.3-5.6,2.4-10.5,2.4-10.8l0.1-0.5 h11.7C209.3,102.8,211.6,102.9,212.7,103.1 M204.2,143.9c5,0.7,7.7,2.6,8.9,6.1c0.5,1.5,0.5,4.7-0.1,6.9 c-1.7,6.9-5.5,10.7-12.3,12.2c-1.6,0.4-2.3,0.4-14.7,0.4c-10.8,0.1-13,0-13-0.2c0-0.1,1.3-5.9,2.9-12.9c1.6-6.9,2.9-12.7,2.9-12.7 C178.7,143.6,203,143.8,204.2,143.9"></path> <path class="st1" d="M266.8,80.6c-0.1,0.5-5.9,26-12.9,56.8c-7,30.8-12.7,56-12.7,56c0,0.1,6.3,0.1,14.1,0.1l14.1-0.1l12.8-56.5 c7-31.1,12.9-56.7,12.9-56.8c0.1-0.3-0.7-0.3-14-0.3H267L266.8,80.6z"></path> <path class="st1" d="M363.7,106c-0.2,0.8-17,87.1-17,87.3c0,0.3,38.6,0.1,41.3-0.2c11.4-1.2,18.5-4.3,23.9-10.5 c3.8-4.3,6.2-9.1,7.4-14.5c0.5-2.5,0.6-7,0.1-9c-1.3-5.1-4.2-8.7-9.1-11.2c-0.8-0.4-1.8-0.9-2.2-1c-0.4-0.1-0.8-0.3-0.9-0.3 c-0.1-0.1,0.6-0.5,1.6-1c5.3-2.9,9.6-7.1,12.1-11.9c1.6-3.2,2.2-5.9,2.2-9.7c0-2.5-0.1-3.1-0.5-4.7c-0.3-1-0.9-2.6-1.3-3.6 c-2.6-5.4-7.2-8.3-15-9.8c-2.2-0.4-2.6-0.4-22.3-0.5l-20.1-0.1L363.7,106z M399.3,116.3c6.2,0.6,8.9,1.9,10.5,5.2 c0.9,1.8,1.2,3.6,1.1,5.8c-0.4,6.4-4.1,11.3-10.2,13.5c-3.6,1.3-7.2,1.5-21.6,1.5c-9.3,0-10.3,0-10.3-0.3c0-0.1,1.1-6.1,2.5-13.1 c1.4-7.1,2.5-12.9,2.5-13C373.8,115.9,396.8,116.1,399.3,116.3 M395.8,153.4c2.6,0.4,4.4,1,5.9,1.8c3.6,1.9,5.7,5.9,5.5,10.3 c-0.4,6.3-4.1,12.2-9.5,14.9c-3.2,1.6-6.1,2.2-11.2,2.4c-3.8,0.2-25.7,0.3-25.7,0.1c0-0.1,1.3-6.7,2.9-14.8 c1.6-8.1,2.9-14.8,2.9-14.9c0-0.1,5.3-0.1,13.8-0.1C392,153.1,394.3,153.2,395.8,153.4"></path> <path class="st1" d="M568.4,149.2c-4.7,24-8.5,43.8-8.5,43.9c-0.1,0.3,0.3,0.3,5.5,0.3h5.6l2.4-12.3c1.3-6.7,2.4-12.4,2.5-12.7 c0.2-0.5,8.9-7.5,9.1-7.3c0.1,0.1,3.5,7.4,7.6,16.2l7.4,16.1h6.8c4.4,0,6.8-0.1,6.8-0.2c0-0.1-4.3-9.1-9.6-19.9 c-5.3-10.9-9.6-19.8-9.7-19.9c0-0.1,6.5-5.4,14.5-11.8s14.6-11.8,14.6-11.9c0-0.1-2.4-0.2-7.1-0.2h-7.1l-15.3,12.7 c-8.4,7-15.3,12.7-15.4,12.7c-0.1-0.1,9.3-48.5,9.5-49.2c0.1-0.3-0.3-0.3-5.5-0.3h-5.6L568.4,149.2z"></path> <path class="st1" d="M462,128.4c-3.1,0.2-7.2,0.9-9.9,1.6c-7.2,2.1-12.2,5.5-15.9,11c-1.2,1.9-3.5,6.2-3.5,6.7c0,0.3,0,0.3,5.1,1 c2.4,0.3,4.5,0.6,4.8,0.7c0.6,0.1,0.6,0.1,1.3-1.4c2.1-4.1,4.9-7.2,7.8-8.6c2.9-1.4,5.8-2,10.5-2c3.4,0,5.7,0.3,7.8,1.1 c2.7,1,4.5,2.5,5.2,4.4c0.6,1.5,0.6,4.9,0,7.8l-0.4,2.1l-2.1,0.6c-4.6,1.2-8.9,1.9-18,3.1c-6.8,0.9-9.7,1.4-12.5,2.3 c-4.3,1.4-7.7,3.4-10.5,6c-2.2,2.1-3.7,4.1-4.9,6.6c-2.5,5.3-2.7,11.1-0.5,15.3c2.1,3.9,5.5,6.3,11,7.4c2.3,0.5,8,0.7,10.8,0.4 c6.8-0.8,12.9-3.2,19.6-7.7l1.7-1.2v2c0,1.9,0.2,3.7,0.6,5.1l0.2,0.7h5.8c3.2,0,5.8-0.1,5.8-0.2c0-0.1-0.2-0.6-0.4-1.3 c-0.5-1.4-0.9-4.1-0.9-5.8c0-3.1,1-9.1,4.1-25.1c3.1-15.8,3.3-17.4,3-20.4c-0.4-4-1.9-6.7-4.6-8.5c-3.5-2.4-7.6-3.5-14-3.9 C465.5,128.2,465.6,128.2,462,128.4 M473.1,161.9c0,0.5-1.2,5.9-1.6,7.6c-1.8,6.6-5.5,11-11.6,14c-3.7,1.9-7.3,2.7-11.6,2.7 c-4.5,0-7.2-0.9-9.2-2.9c-1.3-1.4-1.9-2.7-2-4.5c-0.3-4.2,2.2-8.2,6.4-10.4c2.3-1.2,4.9-1.8,12-2.9c7-1,13.8-2.5,16.6-3.5 C473,161.6,473.1,161.6,473.1,161.9"></path> <path class="st1" d="M533,128.4c-6.8,0.6-12.7,3.3-17.9,8.3c-1.3,1.2-1.6,1.5-1.6,1.1c0.1-0.3,0.4-2,0.8-4c0.4-1.9,0.7-3.7,0.8-3.8 c0.1-0.3-0.2-0.3-5-0.3c-3,0-5.1,0.1-5.1,0.2s-2.7,14.3-6.1,31.6c-3.3,17.3-6.1,31.5-6.1,31.7c0,0.3,0.3,0.3,5.6,0.3 c3.1,0,5.6-0.1,5.6-0.1c0-0.5,7-36,7.4-37.7c1.6-6.5,4.2-10.9,7.7-13.6c6.1-4.6,14.9-5.6,19.8-2.4c2.9,2,4.1,4.8,3.8,9.1 c-0.2,2.6-0.5,4.4-4.5,25c-2,10.5-3.7,19.2-3.7,19.4c0,0.3,0.3,0.3,5.6,0.3c3.1,0,5.6-0.1,5.6-0.1c0-0.1,1.8-9.5,4.1-21 c2.2-11.5,4.3-22.1,4.5-23.5c1-6.9,0-12-3-15.2c-1.4-1.4-2.2-2-4.2-3C543.1,128.8,538.1,128,533,128.4"></path> <path class="st1" d="M38.9,249.8c-6.3,0.5-10.9,3.9-12.1,9c-0.8,3.3,0.5,6.2,3.5,7.8c1.3,0.7,3.7,1.5,6.9,2.3 c5.8,1.5,7.4,2.3,8,4.3c0.4,1.5-0.6,4-2.1,5.2c-3.1,2.4-8.7,2.9-12.5,1.1c-2.2-1-3.4-2.8-3.4-5.4c0-1.4,0-1.4-0.5-1.3 c-0.3,0.1-1.3,0.2-2.2,0.2l-1.8,0.1l-0.1,0.6c-0.2,1-0.1,2.6,0.2,3.8c0.8,3.5,3.4,5.8,7.6,6.8c2,0.5,7.2,0.5,9.1,0 c3.2-0.8,5.8-2.2,7.7-4.3c2.1-2.2,3-4.4,3-7.1c0-2-0.5-3.4-1.6-4.7c-1.7-1.8-3.3-2.5-9.2-4c-5.4-1.4-6.9-2-7.5-3.2 c-0.8-1.5-0.2-3.8,1.4-5.1c1.8-1.6,4.2-2.2,7.6-2.1c4.4,0.2,6.2,1.6,6.5,5.1l0.1,1.3l1.2-0.1c0.7-0.1,1.7-0.2,2.2-0.2l1-0.1 l0.1-1.4C52,252.4,47.1,249.1,38.9,249.8"></path> <path class="st1" d="M180.3,250.5c-0.1,0.3-0.8,4.2-0.8,4.4c0,0.1,0.9,0.2,2.2,0.2h2.2l0.4-2.3c0.2-1.2,0.4-2.3,0.5-2.4 c0-0.1-0.9-0.1-2.2-0.1C181,250.3,180.4,250.4,180.3,250.5"></path> <path class="st1" d="M224.6,250.4c0,0.1-1.5,7.6-3.2,16.8c-1.8,9.1-3.2,16.7-3.2,16.8c0,0.3,16.6,0.1,17.9-0.2 c1.9-0.4,3.8-1.1,4.9-1.8c2.2-1.4,4.1-4,4.9-6.6c0.6-1.9,0.5-4.5-0.2-5.9c-0.6-1.1-1.9-2.4-3.1-3l-0.9-0.4l1-0.6 c2.2-1.3,3.9-3.3,4.6-5.6c0.6-1.8,0.4-4.1-0.3-5.6c-0.9-2-2.6-3.2-5.2-3.8c-1-0.2-2.9-0.3-9.2-0.3 C228.2,250.3,224.6,250.4,224.6,250.4 M240.3,254.8c1,0.3,2,1.2,2.3,2c0.1,0.3,0.2,1,0.2,1.5c0,3-2.1,5.3-5.4,5.8 c-0.7,0.1-3.1,0.2-5.9,0.2l-4.7-0.1l1-4.9c0.5-2.7,1-4.9,1-5c0,0,2.4,0,5.3,0C238.2,254.5,239.5,254.6,240.3,254.8 M237.3,268.8 c3,0.5,4.5,2.5,3.9,5.3c-0.4,2-1.6,3.9-3.3,4.7c-1.8,1-2.6,1.1-8.7,1.1h-5.6l0.1-0.4c0.1-0.2,0.5-2.7,1.1-5.4c0.5-2.8,1-5.1,1-5.2 C225.9,268.6,235.7,268.5,237.3,268.8"></path> <path class="st1" d="M302.4,250.7c-0.2,0.9-0.8,4.1-0.8,4.2c0,0.1,1,0.2,2.2,0.2h2.2l0.4-2.1c0.2-1.1,0.4-2.2,0.5-2.4 c0.1-0.3-0.1-0.3-2.1-0.3C302.6,250.3,302.5,250.3,302.4,250.7"></path> <path class="st1" d="M419.7,250.4c0,0.1-1.5,7.6-3.2,16.7c-1.8,9.2-3.2,16.7-3.2,16.8c0,0.1,1,0.2,2.4,0.2h2.4l3.2-16.6 c1.8-9.1,3.3-16.7,3.3-16.9c0.1-0.3-0.1-0.3-2.3-0.3C420.8,250.3,419.7,250.4,419.7,250.4"></path> <path class="st1" d="M61.7,252.3l-2.2,1.2l-0.5,2.8c-0.3,1.6-0.6,2.9-0.6,3c-0.1,0.2-0.6,0.2-1.6,0.2h-1.5l-0.2,1.2 c-0.1,0.7-0.3,1.4-0.3,1.7c-0.1,0.4,0,0.4,1.5,0.5l1.6,0.1l-1.4,7.3c-0.8,4-1.5,8.2-1.7,9.3c-0.2,2-0.2,2,0.2,2.9 c0.4,0.7,0.7,1,1.5,1.5c1,0.5,1.2,0.5,3.2,0.5c1.2,0,2.4-0.1,2.7-0.2l0.6-0.2l0.1-1.9l0.1-1.9l-1.3,0.1c-1.4,0.1-2-0.1-2.4-0.9 c-0.3-0.4-0.1-1.1,1.3-8.5l1.6-8.1h4.3l0.2-1.4c0.1-0.7,0.3-1.5,0.3-1.7c0.1-0.3-0.1-0.3-2.1-0.3c-2.1,0-2.1,0-2.1-0.4 c0.1-0.2,0.4-1.9,0.8-3.8c0.4-1.9,0.7-3.6,0.8-3.8c0.1-0.3,0-0.4-0.1-0.4C64,251.1,62.9,251.6,61.7,252.3"></path> <path class="st1" d="M117.9,252.3l-2.2,1.2l-0.4,2.1c-0.2,1.1-0.5,2.5-0.6,3l-0.2,1h-3.1l-0.2,0.9c-0.1,0.5-0.3,1.3-0.3,1.7 l-0.1,0.7h1.5c0.9,0,1.5,0.1,1.5,0.2c0,0.1-0.7,3.6-1.5,7.8c-1.2,6.2-1.5,8-1.5,9.5c0,1.8,0,1.9,0.5,2.5c1,1.3,3.1,1.8,6,1.5 c0.9-0.1,1.7-0.2,1.7-0.3c0,0,0.1-0.9,0.2-2l0.1-1.9l-1.1,0.1c-1.9,0.2-2.8-0.3-2.8-1.5c0-0.3,0.7-4,1.5-8.1 c0.8-4.2,1.5-7.7,1.5-7.7s1-0.1,2.1-0.1c2.4,0,2.1,0.3,2.6-2.1l0.3-1.2h-2.1c-1.2,0-2.1-0.1-2.1-0.1c0-0.1,0.4-2,0.8-4.3 c0.5-2.6,0.7-4.1,0.6-4.1C120.3,251.1,119.2,251.6,117.9,252.3"></path> <path class="st1" d="M553.7,252.3c-1.2,0.6-2.3,1.3-2.3,1.5c-0.1,0.2-0.3,1.5-0.6,3.1l-0.5,2.7h-1.5c-1.7,0-1.6-0.1-1.9,1.7 c-0.3,1.7-0.4,1.6,1.3,1.6c0.8,0,1.5,0.1,1.5,0.1c0,0.1-0.7,3.5-1.5,7.7c-1.6,8.3-1.9,10.7-1.4,11.7c0.4,0.8,1.3,1.5,2.2,1.7 c0.9,0.3,3.3,0.3,4.8,0.1l1.1-0.1v-1.5c0-0.8,0.1-1.7,0.1-2c0.1-0.4,0.1-0.4-1-0.3c-1.9,0.2-2.8-0.3-2.8-1.6 c0-0.5,2.5-13.8,2.9-15.5c0.1-0.4,0.2-0.4,2.2-0.4h2.1l0.2-0.9c0.1-0.5,0.3-1.3,0.3-1.7l0.1-0.7h-2.1c-1.5,0-2.1-0.1-2.1-0.2 c0-0.1,0.3-1.9,0.7-4c0.8-4,0.8-4.3,0.6-4.3C556,251.1,554.9,251.6,553.7,252.3"></path> <path class="st1" d="M78.6,259.4c-0.8,0.3-1.4,0.8-2.4,1.8l-1.4,1.4l0.3-1.6l0.3-1.6h-2c-1.9,0-2,0-2.1,0.4 c-0.1,0.2-1.1,5.6-2.3,11.9s-2.3,11.7-2.3,11.9c-0.1,0.4-0.1,0.4,2.1,0.4c1.9,0,2.2,0,2.3-0.3c0.1-0.2,0.6-3.2,1.3-6.7 c1.3-6.9,1.7-8.3,2.5-10.1c0.7-1.6,1.4-2.3,2.6-3c1.3-0.7,3.1-0.8,4.4-0.1c0.4,0.2,0.8,0.4,0.9,0.4c0,0,0.5-0.9,1.1-2 c1.2-2.1,1.2-2.1-0.3-2.8C82.2,258.9,80,258.9,78.6,259.4"></path> <path class="st1" d="M94.5,259.3c-2.9,0.5-5,1.6-6.7,3.4c-0.9,0.9-2.4,3.4-2.4,3.8c0,0.2,2.7,0.6,3.7,0.6c0.4,0,0.6-0.2,0.9-0.9 c1.2-2.2,2.7-3.2,5.3-3.6c2.2-0.3,4.2,0,5.4,0.9c0.4,0.2,0.7,0.6,0.8,0.8c0.4,0.9,0.4,1.7,0.2,2.9l-0.2,1.2l-0.8,0.2 c-1.5,0.4-3.2,0.7-6.7,1.2c-1.9,0.3-4.1,0.6-4.8,0.8c-2.8,0.8-5.1,2.6-6.3,5c-0.6,1.1-0.6,1.3-0.6,3.3s0,2.1,0.6,3 c1.2,1.9,3.2,2.8,6.8,2.8c3.3,0,5.5-0.7,8.8-2.8l0.8-0.5l0.1,1.2c0.1,0.6,0.2,1.3,0.2,1.4c0.1,0.1,0.9,0.2,2.4,0.2h2.2l-0.1-0.5 c-0.5-2.2-0.3-3.6,1.3-12.3c1.2-6.2,1.3-7.9,0.6-9.3c-0.7-1.4-2.5-2.5-4.8-2.9C99.8,258.9,96.2,259,94.5,259.3 M100.9,272.6 c-0.3,1.4-1,3.8-1.4,4.5c-0.2,0.4-0.9,1.2-1.5,1.7c-1.8,1.6-3.9,2.4-6.4,2.4c-2.4,0-3.6-0.6-4.2-2.1c-0.3-0.7-0.3-0.9,0-1.8 c0.1-0.5,0.5-1.3,0.9-1.7c1-1.2,2.1-1.6,6.4-2.3c2.2-0.4,4.4-0.8,5-1C101.1,271.9,101,271.9,100.9,272.6"></path> <path class="st1" d="M134,259.3c-3,0.7-6.1,2.7-8,5.2s-3.3,6.4-3.5,10c-0.4,5.2,2.1,8.8,6.6,9.9c1.7,0.4,5.5,0.3,7.3-0.2 c2.6-0.7,4.9-2.2,6.6-4.4c0.9-1.1,2-3,1.8-3.1c-0.1-0.1-4.3-0.7-4.4-0.6c0,0-0.3,0.5-0.7,1.1c-1,1.4-2.3,2.7-3.6,3.3 c-0.9,0.4-1.3,0.5-3.1,0.5c-1.9,0-2.1,0-3-0.6c-1.2-0.6-1.8-1.3-2.4-2.6c-0.5-1-0.8-3.3-0.5-4.2l0.1-0.5h9.3c8.6,0,9.2,0,9.3-0.3 c0.3-1,0.5-2.7,0.5-4.5c0-3.1-0.6-4.8-2.2-6.5c-1.8-1.9-3.4-2.5-6.7-2.6C135.9,259,134.8,259.1,134,259.3 M139,263.1 c1.9,0.8,3,2.6,3,5.1v1.2h-13.7l0.1-0.4c0.6-2.1,2.8-4.6,4.6-5.5C135,262.5,137.2,262.3,139,263.1"></path> <path class="st1" d="M159.6,259.3c-3.6,0.8-6.8,3.4-8.7,7.2c-3.5,6.9-2.4,14.7,2.5,16.9c3.3,1.5,7.6,0.9,10.7-1.5 c0.8-0.6,0.9-0.6,0.8-0.3c-0.1,0.2-0.3,1.1-0.5,2.1c-0.5,2-0.7,2.7-1.6,3.9c-1.4,2-4.1,3-7.1,2.8c-2.7-0.2-4.2-1.3-4.2-3.1 c0-0.4,0-0.8-0.1-0.8c0,0-1-0.1-2.1-0.3c-1.1-0.1-2-0.2-2.1-0.2c-0.1,0.1-0.2,0.8-0.2,1.6c-0.1,2,0.3,3.1,1.7,4.3 c1.7,1.5,3.7,2,7.6,1.9c2.4-0.1,3-0.2,4.3-0.6c2.1-0.7,3.3-1.5,4.9-3c1-1.1,1.5-1.7,2.1-2.9c1.1-2.3,1.4-3.8,3.8-16 c1.2-6.1,2.2-11.2,2.2-11.4c0.1-0.4,0.1-0.4-1.9-0.4c-2.3,0-2.1-0.1-2.4,1.3c-0.2,1.3-0.2,1.3-1.4,0.2c-1.5-1.4-2.7-1.9-5.2-1.9 C161.5,259.1,160.3,259.1,159.6,259.3 M164.4,263.2c1.1,0.5,1.8,1.3,2.4,2.7c0.4,0.9,0.5,1.2,0.4,3c0,2.3-0.6,4.8-1.6,6.8 c-0.8,1.6-2.6,3.5-4.1,4.3c-1,0.5-1.3,0.6-3,0.6c-1.5,0-2-0.1-2.6-0.4c-2.1-1.1-3.1-3.5-2.6-6.8c0.4-3.7,1.5-6.3,3.3-8.1 C159.1,262.7,161.9,262,164.4,263.2"></path> <path class="st1" d="M196.2,259.3c-2.3,0.5-4.6,1.6-6.1,3c-2.7,2.3-4.8,7-5.2,11.7c-0.6,6.6,2.4,10.3,8.4,10.7 c5.1,0.3,10-2.5,12.2-7.1c1.1-2.2,1.1-2-0.8-2.3c-2.6-0.4-2.5-0.4-3.2,1.1c-1.4,2.9-3.6,4.4-6.3,4.6c-1.6,0.1-2.7-0.2-3.7-0.9 c-2.3-1.5-2.7-5.1-1.4-9.9c1-3.5,2.6-5.6,4.9-6.7c2.8-1.4,5.4-1.2,7,0.6c0.6,0.7,1.1,2.2,1.1,3c0,0.4,0.1,0.4,0.6,0.3 c0.3-0.1,1.3-0.2,2.2-0.3l1.6-0.2l-0.1-1.1c-0.3-3.2-1.9-5.2-4.7-6.3C201.5,259,197.9,258.9,196.2,259.3"></path> <path class="st1" d="M283.5,259.2c-3.5,0.7-6.1,2.5-7.4,5.1c-0.7,1.4-0.8,3.7-0.4,4.9c0.8,2,2.4,2.9,8.4,4.5c4.1,1.1,4.9,1.6,4.9,3 c0,1.6-1.5,3.2-3.5,3.9c-2.2,0.7-5.3,0.4-6.7-0.6c-0.8-0.6-1.5-2.1-1.5-3.2V276l-0.7,0.1c-0.4,0.1-1.4,0.2-2.3,0.3l-1.6,0.2 l0.1,1.3c0.4,3.9,2.4,6,6.7,6.6c7.1,1,13.2-2.4,14.2-7.9c0.3-1.8,0-3.1-1.1-4.3c-1-1.1-2.3-1.7-7.1-3.1c-3.8-1.1-4.8-1.5-5.2-2.1 c-0.7-0.9-0.2-2.4,1.1-3.4c1.8-1.3,5.8-1.6,7.5-0.4c0.9,0.6,1.3,1.3,1.5,2.3c0.1,0.5,0.2,0.9,0.2,1c0,0,0.9-0.1,2-0.2 c1.1-0.2,2-0.3,2.1-0.3c0.2,0,0.1-2.1-0.2-3.1c-0.8-2.6-3.7-4-8.2-3.9C285.2,259.1,283.9,259.1,283.5,259.2"></path> <path class="st1" d="M319.1,259.3c-1.5,0.4-3.5,1.5-4.6,2.5l-1,0.9l0.2-1.2c0.4-2.1,0.6-2-1.7-2c-1.8,0-1.9,0-2,0.4 c-0.1,0.2-1.1,5.6-2.3,11.9c-1.2,6.3-2.3,11.7-2.3,11.9c-0.1,0.4-0.1,0.4,2.1,0.4c2.1,0,2.2,0,2.3-0.4c0.1-0.2,0.7-3.4,1.4-7.2 c0.7-3.7,1.5-7.3,1.7-8c1.1-3.4,3.2-5.3,6.5-5.8c1.2-0.2,1.5-0.2,2.4,0.1c1.3,0.4,2.2,1.2,2.6,2.1c0.3,1.1,0.1,3-1.5,11.1 c-0.8,4.2-1.5,7.7-1.5,7.8c0,0.1,0.7,0.2,2.2,0.2h2.2l1.6-8.4c1.5-7.7,1.7-8.5,1.7-10.6c0-2,0-2.3-0.5-3.1 c-0.6-1.1-1.6-1.9-3.1-2.5C324.2,259,320.8,258.9,319.1,259.3"></path> <path class="st1" d="M343,259.3c-2.8,0.6-5.1,2-7.1,4.1c-2,2.2-3.3,4.8-4,8.3c-1.6,7.8,1.5,12.5,8.4,13c5.6,0.4,10.4-2.1,13-6.7 c0.3-0.6,0.6-1.1,0.6-1.2c0-0.1-0.9-0.2-1.9-0.3c-1.1-0.1-2-0.3-2.2-0.3c-0.2-0.1-0.5,0.2-0.8,0.8c-0.8,1.4-2.4,2.8-3.8,3.5 c-1,0.5-1.5,0.6-2.9,0.6c-2.2,0.1-3.2-0.3-4.5-1.5c-1.3-1.3-1.8-2.5-1.8-4.7v-1.7h18.6l0.2-1.1c0.3-1.8,0.5-4.5,0.2-5.9 c-0.6-3.5-2.9-6-6.4-6.8C347.3,259,344.5,259,343,259.3 M348,263.2c1.1,0.5,1.8,1.3,2.3,2.4c0.4,0.9,0.6,2.7,0.5,3.3l-0.1,0.5h-6.8 c-5.4,0-6.8-0.1-6.8-0.2c0-0.1,0.3-0.8,0.6-1.6c1.1-2.4,3.6-4.3,6-4.8C345.1,262.5,346.9,262.7,348,263.2"></path> <path class="st1" d="M366.8,259.3c-3.5,0.8-5.8,2.4-7.1,5.3c-0.4,0.9-0.5,1.3-0.5,2.7c0,1.9,0.3,2.8,1.5,3.8c1,0.9,2.3,1.4,6.3,2.5 c1.9,0.6,3.9,1.2,4.4,1.4c1.7,0.8,1.8,2.4,0.3,4.1c-0.4,0.5-1.2,1.1-1.8,1.4c-1,0.5-1.2,0.5-3.5,0.5c-2.1,0-2.5-0.1-3.2-0.4 c-1.5-0.8-2.3-2.1-2.3-3.8V276l-0.7,0.1c-0.4,0.1-1.4,0.2-2.3,0.3l-1.5,0.2l0.1,1.4c0.2,3.4,1.9,5.4,5.2,6.2c1.6,0.4,5.9,0.4,7.6,0 c5-1.3,8.3-5.2,8-9.3c-0.2-1.6-0.8-2.7-2.2-3.6c-1-0.6-3.8-1.6-7.6-2.6c-2.5-0.7-3.6-1.2-3.9-2c-0.7-1.8,1.1-3.6,4.1-4.1 c3.5-0.5,5.9,0.6,6.2,3c0.1,0.9,0.1,0.9,0.7,0.8c0.3-0.1,1.3-0.2,2.1-0.3c0.9-0.1,1.6-0.3,1.6-0.3c0.2-0.2-0.3-3.1-0.7-3.7 c-0.7-1.4-2.4-2.4-4.8-2.9C371.6,259,368.3,259,366.8,259.3"></path> <path class="st1" d="M390.1,259.3c-2.6,0.6-4.3,1.5-5.7,3.1c-1.4,1.5-1.9,2.7-1.9,4.7c-0.1,1.6,0,1.8,0.5,2.7 c0.9,1.7,2.2,2.4,6.7,3.6c4.1,1.1,5.2,1.6,5.8,2.1c1.4,1.5-0.4,4.4-3.3,5.2c-1.7,0.5-4.5,0.3-5.7-0.3c-1.2-0.6-1.9-1.6-2.1-3.1 c-0.1-0.7-0.2-1.2-0.2-1.2s-1,0.1-2.2,0.3l-2.2,0.3l0.1,1.2c0.4,4.1,2.4,6.1,6.9,6.7c6.9,0.9,13-2.5,14-7.9 c0.5-2.7-0.6-4.7-3.1-5.8c-0.6-0.3-2.9-1-5.2-1.7c-4.9-1.5-5.5-1.8-5.5-3.3c0-1.2,1.3-2.5,2.9-3c1.3-0.4,3.3-0.5,4.4-0.3 c1.9,0.4,2.9,1.4,3.1,3c0,0.5,0.1,0.9,0.2,0.9c0.1,0,1-0.1,2.1-0.3c1.1-0.2,2-0.3,2.1-0.3c0.1,0,0.1-0.5,0.1-1.1 c0-3.1-1.7-4.9-5.3-5.7C394.8,259,391.6,259,390.1,259.3"></path> <path class="st1" d="M436,259.4c-1.6,0.4-2.8,1-4.3,2.3c-1,0.8-1.1,0.9-1,0.5c0.3-1.4,0.5-2.1,0.5-2.3c0-0.2-0.5-0.2-2-0.2h-2 l-2.4,12.2c-1.3,6.7-2.4,12.2-2.4,12.3c0,0.1,1,0.2,2.2,0.2h2.2l1.4-7.4c0.8-4.1,1.6-7.9,1.9-8.6c1.2-3.3,3.9-5.3,7.3-5.3 c1.8,0,2.9,0.5,3.7,1.6c0.8,1.2,0.7,2.4-1.1,11.3c-0.8,4.3-1.6,7.9-1.6,8.1c-0.1,0.3,0.1,0.3,2.1,0.3c1.9,0,2.2,0,2.3-0.3 c0.2-0.5,3.1-15.6,3.3-17.1c0.4-2.8-0.1-4.8-1.6-6.1c-1.3-1.2-2.6-1.6-5.1-1.6C437.8,259,437.1,259.1,436,259.4"></path> <path class="st1" d="M460.8,259.4c-1.6,0.4-2.8,1.1-4.3,2.3c-0.7,0.6-1.1,0.8-1,0.6c0.1-0.3,0.5-2.4,0.5-2.6c0,0-0.9-0.1-2-0.1h-2 l-2.3,12.2c-1.3,6.7-2.4,12.2-2.4,12.3c0,0.1,1,0.2,2.2,0.2h2.2l1.3-6.5c0.7-3.6,1.4-7.2,1.6-8c0.8-3.1,2-4.9,4.2-6 c3.6-1.8,7.2-0.8,7.7,2c0.1,0.4,0,1.3-0.1,2c-0.2,1.4-2.9,15.6-3.1,16.1c-0.1,0.3,0.1,0.3,2.1,0.3c1.9,0,2.2,0,2.3-0.3 c0.1-0.5,3-15.4,3.3-16.9c0.3-1.8,0.2-2.8-0.2-4.1c-0.3-1-0.5-1.4-1.3-2c-1.4-1.2-2.6-1.6-5.2-1.7 C462.6,259,461.9,259.1,460.8,259.4"></path> <path class="st1" d="M484.1,259.3c-2.7,0.6-5,1.8-6.9,3.8c-2.3,2.3-3.7,5.3-4.4,9.2c-0.3,2.1-0.3,5.1,0.2,6.6 c0.8,2.4,2.9,4.5,5.5,5.3c1.9,0.6,5.3,0.6,7.4,0c3.9-1.1,7.2-3.8,8.8-7.1c1.7-3.7,2.5-8.8,1.8-11.7c-0.8-3.1-3.2-5.3-6.4-6.1 C488.7,259,485.7,259,484.1,259.3 M488.7,263c1.1,0.4,2.4,1.6,3,2.8c0.4,0.7,0.4,1.2,0.4,3.2c0,4-1.2,7.2-3.4,9.5 c-1.8,1.8-3.2,2.4-5.5,2.5c-1.7,0.1-1.8,0.1-3-0.6c-2.3-1.2-3.1-2.9-2.9-6.3c0.2-4.3,1.9-8,4.5-9.9 C484.1,262.6,486.3,262.2,488.7,263"></path> <path class="st1" d="M532,259.1c-4.6,0.7-7.5,2.6-9.2,6c-0.4,0.8-0.8,1.6-0.7,1.6c0.1,0.1,3.4,0.5,3.9,0.5c0.3,0,0.5-0.2,0.8-0.8 c0.6-1.2,2-2.6,3-3.1c2.8-1.2,7.2-0.7,8.4,1c0.3,0.4,0.4,0.8,0.4,2c0,0.8-0.1,1.7-0.2,1.9c-0.3,0.5-2.5,1-6.8,1.6 c-4,0.5-5.5,0.9-7.2,1.6c-2.6,1.2-4.4,3.2-5,5.7c-1,4,0.9,6.9,5.1,7.5c3.5,0.5,7.7-0.5,10.9-2.7l1-0.7v1.1c0,2-0.1,1.9,2.5,1.9 c2.3,0,2.3,0,2.2-0.4c-0.6-2.2-0.6-3.1,1.1-11.8c1.1-5.9,1.3-7.6,1-9c-0.4-1.8-2.1-3.1-4.7-3.6C537.2,259.1,533.2,258.9,532,259.1 M537.1,274.3c-0.5,2.1-1.1,3.2-2.3,4.4c-1.7,1.7-4.1,2.6-6.8,2.6c-1.2,0-1.7-0.1-2.4-0.5c-2.7-1.4-2.1-5,1.1-6.4 c0.5-0.2,2.6-0.7,4.6-1c2.1-0.4,4.3-0.8,5-1c0.8-0.2,1.2-0.3,1.3-0.2C537.5,272.4,537.3,273.3,537.1,274.3"></path> <path class="st1" d="M569.6,259.3c-6.6,1.5-10.9,7-11.5,15.1c-0.3,3.9,1.2,7.3,4,9c2.7,1.6,7.3,1.7,10.9,0.3c4.2-1.7,6.8-4.5,8.3-9 c1-3,1.4-6.9,0.9-9.1c-0.7-3.1-3-5.4-6.2-6.2C574.2,259,571.4,258.9,569.6,259.3 M574.5,263.1c1.7,0.8,2.9,2.4,3.3,4.6 c0.4,2.8-1,7.9-2.8,10.2c-0.9,1.1-2.7,2.4-4,2.8c-1.5,0.5-4,0.4-5.1-0.1c-1-0.5-2-1.6-2.5-2.7c-1.1-2.5-0.3-7.7,1.6-10.9 C566.9,263.5,571.3,261.7,574.5,263.1"></path> <path class="st1" d="M595.3,259.2c-1.3,0.4-2.4,1.2-3.7,2.7c-0.8,0.9-0.8,0.9-0.4-0.9c0.1-0.7,0.3-1.3,0.3-1.4c0-0.1-0.9-0.1-2-0.1 s-2,0.1-2,0.1s-1,5.5-2.3,12s-2.3,12-2.3,12.2c0,0.3,0.3,0.3,2.2,0.3h2.2l1.1-5.7c1.5-7.6,1.8-9.2,2.5-10.8c0.7-1.6,1.9-3.1,3-3.7 c1.3-0.7,3.3-0.5,4.9,0.4c0.1,0.1,1-1.5,2.3-3.9c0.1-0.1-0.5-0.4-1.2-0.7c-1-0.5-1.5-0.6-2.6-0.6 C596.4,259,595.5,259.1,595.3,259.2"></path> <path class="st1" d="M178.5,260c-0.1,0.2-1.1,5.6-2.3,11.9c-1.2,6.3-2.3,11.7-2.3,11.9c-0.1,0.4-0.1,0.4,2.1,0.4 c1.9,0,2.2,0,2.3-0.3c0.1-0.2,1.1-5.5,2.3-11.9c1.2-6.4,2.3-11.7,2.4-12c0.1-0.4,0.1-0.4-2.1-0.4 C178.6,259.6,178.6,259.6,178.5,260"></path> <path class="st1" d="M252.6,259.6c0,0-0.7,3.7-1.6,8.2c-1.5,7.6-1.6,8.3-1.6,10.5c0,2.1,0,2.5,0.4,3.1c1.2,2.2,4,3.4,7.3,3.2 c2.6-0.2,5-1.2,7-3c0.8-0.7,0.9-0.7,0.5,1c-0.1,0.7-0.3,1.3-0.3,1.3c0,0.1,0.9,0.1,2,0.1h2l2.4-12.2c1.3-6.7,2.4-12.2,2.3-12.3 c0-0.1-1-0.1-2.2-0.1h-2.2l-1.3,6.5c-1.5,7.9-1.8,9.1-2.6,10.6c-2,4.1-8.1,5.6-10.4,2.6c-0.3-0.5-0.4-0.8-0.4-2.4 c0-1.6,0.3-3.2,1.5-9.5c0.8-4.2,1.5-7.7,1.5-7.7s-1-0.1-2.2-0.1C253.6,259.6,252.6,259.6,252.6,259.6"></path> <path class="st1" d="M300.5,260.5c-0.1,0.5-1.2,5.9-2.3,12c-1.2,6.1-2.2,11.2-2.2,11.3c-0.1,0.3,0.1,0.3,2.2,0.3l2.2-0.1l2.3-11.6 c1.2-6.4,2.3-11.9,2.4-12.2l0.1-0.7h-4.4L300.5,260.5z"></path> <path class="st1" d="M498.9,260.2c0.1,0.3,1.1,5.8,2.4,12.3l2.3,11.7h4.2l7.1-12.2l7.1-12.2l-2.2-0.1c-1.2,0-2.3,0-2.4,0.1 c-0.2,0.2-8.4,14.8-9.7,17.2l-1,1.8l-0.1-0.9c-0.2-1.4-2.9-17.5-3-17.9c-0.1-0.3-0.4-0.3-2.4-0.3h-2.3V260.2z"></path> </g> </svg> 