<?xml version="1.0" encoding="UTF-8"?> <svg xmlns="http://www.w3.org/2000/svg" width="133" height="36" viewBox="0 0 133 36" fill="none"> <path d="M27.7979 35.3659V0H0V35.3659H6.06586V5.17073H21.732V35.3659H27.7979Z" fill="#F3F3F3"></path> <path d="M37.3526 22.2598C37.3526 16.211 40.505 13.2354 44.1349 13.2354C47.7649 13.2354 50.9172 16.211 50.9172 22.2598C50.9172 28.3086 47.7649 31.2354 44.1349 31.2354C40.505 31.2354 37.3526 28.3086 37.3526 22.2598ZM44.1349 8.50371C37.878 8.50371 31.4778 12.7964 31.4778 22.2598C31.4778 31.772 37.878 35.9671 44.1349 35.9671C50.3918 35.9671 56.792 31.772 56.792 22.2598C56.792 12.7964 50.3918 8.50371 44.1349 8.50371Z" fill="#F3F3F3"></path> <path d="M80.2786 13.7073V9.12195H57.066V13.7073H65.8543V35.3659H71.5381V13.7073H80.2786Z" fill="#F3F3F3"></path> <path d="M86.4174 22.2927C86.4174 16.2439 89.5697 13.2683 93.1996 13.2683C96.8296 13.2683 99.9819 16.2439 99.9819 22.2927C99.9819 28.3415 96.8296 31.2683 93.1996 31.2683C89.5697 31.2683 86.4174 28.3415 86.4174 22.2927ZM93.1996 8.53659C86.9427 8.53659 80.5425 12.8293 80.5425 22.2927C80.5425 31.8049 86.9427 36 93.1996 36C99.4566 36 105.857 31.8049 105.857 22.2927C105.857 12.8293 99.4566 8.53659 93.1996 8.53659Z" fill="#F3F3F3"></path> <path d="M126.456 35.3659H133L122.635 21.8537L132.331 9.12195H125.836L118.432 19.3171H115.328V9.12195H109.596V35.3659H115.328V23.9024H118.002L126.456 35.3659Z" fill="#F3F3F3"></path> </svg> 