<?xml version="1.0" encoding="UTF-8"?> <svg xmlns="http://www.w3.org/2000/svg" width="348" height="120" viewBox="0 0 348 120" fill="none"> <g clip-path="url(#clip0_1025_1050)"> <path d="M139.051 58.7441C139.447 60.0376 140.262 61.1623 141.367 61.9399C143.75 63.3223 149.25 62.3635 149.25 62.3635V37.9489C149.25 26.0575 138.977 20.3272 129.276 20.4462C123.968 20.5056 117.637 20.5279 113.74 23.8575C112.159 25.2027 110.541 26.7263 111.743 29.8032L113.324 32.3004C116.613 30.4498 123.568 28.7924 128.266 28.9858C132.356 29.1566 138.331 31.5423 138.331 36.678C128.214 32.5011 108.641 36.9976 108.641 49.1268C108.641 56.834 116.62 63.2479 127.294 63.2479C130.478 63.2479 136.483 61.9621 139.051 58.7441ZM118.81 48.7924C118.951 42.7055 133.195 42.6089 138.413 44.9352V51.3564C134.316 55.6152 118.646 56.2543 118.81 48.7924ZM160.518 63.9242C171.518 57.8225 172.483 50.9627 173.047 43.8129L173.619 30.4721H188.278V62.3635H199.272V21.6501H169.818C167.98 21.6501 166.217 22.3802 164.916 23.6802C163.615 24.9802 162.882 26.7439 162.878 28.5844L162.745 42.8987C162.641 46.0128 162.537 49.3275 160.102 52.8726C158.89 54.555 157.381 56.0009 155.648 57.1387L158.187 60.5724C159.464 62.371 160.518 63.9242 160.518 63.9242ZM229.645 20.4834C216.165 20.5576 207.511 31.3641 207.511 41.8806C207.511 52.3969 215.838 63.1661 229.727 63.1661C235.665 63.1661 243.979 61.0554 249.025 55.682L245.604 51.966C244.887 51.2941 243.971 50.8754 242.993 50.7735C242.017 50.6715 241.033 50.8919 240.193 51.4011C232.77 55.2286 219.49 53.4449 218.511 44.8162L251.016 44.5783C251.164 42.7055 251.223 42.2595 251.223 40.9813C251.223 29.5952 241.529 20.4089 229.645 20.4834ZM218.511 37.6665C219.395 32.2039 225.474 29.6695 229.727 29.6695C233.979 29.6695 239.584 32.0404 240.468 37.6665H218.511ZM337 21.6501V37.3098H319.511V21.6501H308.592V62.3635H319.511V46.7039H337V62.3635H348V21.6501H337ZM278.539 20.4462C273.232 20.5056 266.9 20.5279 263.003 23.8575C261.421 25.2027 259.803 26.7263 261.007 29.8032L262.564 32.3004C265.86 30.4498 272.808 28.7924 277.507 28.9858C281.596 29.1566 287.571 31.5423 287.571 36.678C277.455 32.5011 257.882 36.9976 257.882 49.1268C257.882 56.834 265.86 63.2479 276.535 63.2479C279.748 63.2479 285.753 61.9621 288.328 58.7441C288.72 60.0376 289.532 61.1627 290.637 61.9399C293.019 63.3223 298.52 62.3635 298.52 62.3635V37.9489C298.49 26.0649 288.187 20.3272 278.539 20.4462ZM287.676 51.3564C283.578 55.6152 267.909 56.2543 268.073 48.7924C268.228 42.6907 282.458 42.6089 287.676 44.9352V51.3564ZM120.576 92.5009H115.44V89.2902H113.525V97.6291H115.44V93.9874H120.576V97.5844H122.477V89.2604H120.576V92.5009ZM146.556 99.9331V96.0682H144.626V89.2604H142.733V96.0682H137.96V89.2604H136.045V97.5994H145.19V99.9331H146.556ZM150.341 95.5555V89.2679H148.411V97.6068H150.401L155.099 91.2747V97.6068H156.999V89.2604H155.04L150.341 95.5555ZM169.165 93.43C169.181 92.7731 169.035 92.1225 168.742 91.5347C168.462 90.9962 168.061 90.5305 167.569 90.1747C166.547 89.4075 165.29 89.0213 164.014 89.0821C162.739 89.0121 161.481 89.3994 160.466 90.1747C159.977 90.5307 159.578 90.9964 159.3 91.5347C159.001 92.1206 158.853 92.7721 158.87 93.43C158.854 94.09 159.002 94.7437 159.3 95.3326C159.575 95.8742 159.975 96.3428 160.466 96.7001C161.514 97.4122 162.751 97.7931 164.018 97.7931C165.284 97.7931 166.521 97.4122 167.569 96.7001C168.063 96.3434 168.464 95.8747 168.742 95.3326C169.041 94.7409 169.191 94.0853 169.18 93.4225L169.165 93.43ZM167.087 94.7305C166.893 95.1027 166.616 95.4256 166.278 95.6745C165.639 96.1552 164.848 96.39 164.051 96.3359C163.249 96.3754 162.46 96.1277 161.824 95.6373C161.485 95.4008 161.203 95.0908 161 94.7305C160.791 94.3244 160.689 93.8717 160.703 93.415C160.692 92.9667 160.791 92.5225 160.993 92.1218C161.19 91.7408 161.472 91.4101 161.817 91.1557C162.466 90.6981 163.25 90.4705 164.044 90.5091C164.839 90.4474 165.631 90.6771 166.27 91.1557C166.613 91.4122 166.895 91.7423 167.094 92.1218C167.302 92.5206 167.404 92.9656 167.391 93.415C167.403 93.8722 167.298 94.3251 167.087 94.7305ZM179.98 97.5919V89.2604H178.08V92.5009H173.315V89.2902H171.399V97.6291H173.315V93.9874H178.08V97.5844L179.98 97.5919ZM194.515 92.5455C194.44 93.1267 194.318 93.7008 194.149 94.2623C194.045 94.7145 193.843 95.1381 193.556 95.5035C193.439 95.6644 193.288 95.7978 193.114 95.894C192.938 95.9903 192.745 96.0474 192.547 96.0609H192.369V97.5919H192.517C192.853 97.6121 193.189 97.5651 193.505 97.4541C193.824 97.3432 194.116 97.1702 194.365 96.9453C194.894 96.3966 195.296 95.7399 195.545 95.0204C195.811 94.266 196 93.4867 196.11 92.6941L196.385 90.7988H199.294V97.5919H201.208V89.2604H194.929L194.515 92.5455ZM211.415 92.9914C210.743 92.4708 209.901 92.2192 209.054 92.2853H205.699V89.2531H203.792V97.5919H209.129C209.966 97.65 210.792 97.3839 211.438 96.8488C211.932 96.3223 212.205 95.6274 212.205 94.9051C212.205 94.183 211.932 93.4881 211.438 92.9616L211.415 92.9914ZM209.931 95.7562C209.619 95.9839 209.238 96.0919 208.854 96.0609H205.715V93.6305H208.824C209.217 93.6032 209.609 93.7192 209.924 93.9576C210.049 94.0726 210.148 94.2143 210.213 94.3726C210.277 94.5307 210.305 94.7013 210.295 94.8717C210.305 95.0397 210.277 95.2079 210.211 95.3627C210.145 95.5176 210.044 95.6548 209.915 95.7635L209.931 95.7562ZM234.67 97.5919H236.563V89.2604H234.67V97.5919ZM230.031 92.2853H227.063V89.2531H225.095V97.5919H230.068C230.905 97.6484 231.73 97.3825 232.377 96.8488C232.873 96.3232 233.148 95.6279 233.148 94.9051C233.148 94.1825 232.873 93.4872 232.377 92.9616C231.7 92.4524 230.86 92.2138 230.016 92.2928L230.031 92.2853ZM230.9 95.7562C230.588 95.9827 230.207 96.0907 229.823 96.0609H227.054V93.6305H229.793C230.188 93.6032 230.578 93.7192 230.893 93.9576C231.016 94.0736 231.115 94.2155 231.18 94.3735C231.242 94.5314 231.272 94.7015 231.263 94.8717C231.274 95.0397 231.246 95.2079 231.18 95.3627C231.114 95.5176 231.013 95.6548 230.884 95.7635L230.9 95.7562ZM242.545 87.8855C242.843 88.0305 243.172 88.102 243.504 88.0936C243.833 88.1028 244.158 88.0314 244.454 87.8855C244.72 87.7402 244.952 87.5401 245.136 87.2983C245.333 87.0486 245.486 86.7672 245.589 86.466C245.704 86.138 245.785 85.7994 245.834 85.4552H244.936C244.912 85.8968 244.762 86.3222 244.505 86.6815C244.388 86.8326 244.237 86.9535 244.064 87.0336C243.89 87.1138 243.701 87.1512 243.511 87.1423C243.302 87.1484 243.094 87.0997 242.909 87.0011C242.746 86.9032 242.601 86.7745 242.486 86.622C242.368 86.4597 242.278 86.279 242.22 86.087C242.159 85.8806 242.121 85.6691 242.1 85.4552H241.247C241.279 85.7976 241.343 86.1361 241.441 86.466C241.529 86.7651 241.67 87.0467 241.855 87.2983C242.034 87.5442 242.265 87.7474 242.532 87.8929L242.545 87.8855ZM241.15 95.5406V89.2531H239.198V97.5919H241.188L245.886 91.2597V97.5919H247.779V89.2604H245.82L241.15 95.5406ZM113.065 109.773H116.598V116.588H118.513V109.773H122.417V108.242H113.065V109.773ZM128.6 114.344L125.512 108.242H123.508L127.554 116.284C127.494 116.468 127.397 116.638 127.27 116.784C127.142 116.93 126.986 117.048 126.811 117.131C126.417 117.306 125.988 117.389 125.557 117.376C125.206 117.352 124.86 117.274 124.533 117.146L124.184 118.677C124.538 118.764 124.902 118.809 125.267 118.811C126.069 118.849 126.868 118.704 127.606 118.387C127.943 118.22 128.254 118.002 128.526 117.74C128.827 117.441 129.077 117.094 129.268 116.715L132.98 108.25H131.094L128.6 114.344ZM142.414 109.097C141.622 108.421 140.611 108.059 139.571 108.079C138.405 108.059 137.265 108.425 136.327 109.119V108.242H134.538V118.915H136.372V115.86C137.39 116.48 138.565 116.795 139.757 116.767C140.661 116.796 141.549 116.521 142.28 115.986C142.799 115.598 143.215 115.088 143.49 114.5C143.804 113.871 143.96 113.174 143.943 112.471C143.965 111.774 143.815 111.082 143.505 110.457C143.242 109.927 142.864 109.462 142.399 109.097H142.414ZM141.82 113.742C141.607 114.142 141.308 114.49 140.944 114.76C140.425 115.084 139.833 115.271 139.222 115.303C138.175 115.318 137.157 114.954 136.357 114.277V110.747C136.697 110.338 137.128 110.014 137.615 109.803C138.102 109.591 138.632 109.497 139.163 109.528C139.832 109.508 140.484 109.736 140.996 110.167C141.329 110.44 141.602 110.779 141.799 111.163C141.996 111.546 142.112 111.966 142.139 112.397C142.152 112.867 142.037 113.332 141.805 113.742H141.82ZM157.601 116.588H159.508V109.773H164.652V116.588H166.552V108.242H157.586L157.601 116.588ZM178.176 112.449C178.164 111.92 178.071 111.396 177.901 110.896C177.717 110.325 177.388 109.813 176.944 109.409C176.476 108.944 175.917 108.578 175.303 108.336C174.691 108.093 174.033 107.978 173.374 107.997C172.187 107.962 171.025 108.341 170.086 109.067C169.599 109.468 169.189 109.954 168.876 110.502C168.585 111.094 168.434 111.744 168.434 112.404C168.434 113.064 168.585 113.715 168.876 114.307C169.17 114.842 169.575 115.309 170.063 115.674C171.009 116.357 172.141 116.733 173.307 116.752C174.442 116.809 175.568 116.53 176.544 115.949C177.266 115.492 177.831 114.826 178.169 114.039H176.06C175.696 114.894 175.08 115.422 173.448 115.422C172.914 115.432 172.386 115.307 171.912 115.059C171.439 114.811 171.035 114.447 170.739 114.002C170.516 113.664 170.372 113.281 170.316 112.88H178.185L178.176 112.449ZM170.353 111.706C170.408 111.324 170.562 110.962 170.798 110.658C171.096 110.286 171.469 109.981 171.892 109.764C172.315 109.546 172.78 109.42 173.255 109.394C173.806 109.358 174.355 109.483 174.835 109.755C175.315 110.027 175.705 110.434 175.957 110.925C176.102 111.165 176.199 111.43 176.246 111.706H170.353ZM220.731 92.5009H215.958V89.2902H214.043V97.6291H215.958V93.9874H220.731V97.5844H222.624V89.2604H220.731V92.5009ZM201.342 110.145H204.876V116.96H206.79V110.145H210.695V108.614H201.342V110.145ZM154.327 109.223C153.306 108.455 152.048 108.069 150.772 108.131C149.497 108.061 148.239 108.448 147.224 109.223C146.738 109.58 146.34 110.043 146.058 110.576C145.778 111.171 145.633 111.821 145.633 112.479C145.633 113.136 145.778 113.786 146.058 114.381C146.334 114.92 146.733 115.387 147.224 115.741C148.27 116.457 149.508 116.84 150.775 116.84C152.043 116.84 153.281 116.457 154.327 115.741C154.822 115.389 155.224 114.922 155.5 114.381C155.783 113.787 155.931 113.137 155.931 112.479C155.931 111.82 155.783 111.17 155.5 110.576C155.211 110.038 154.802 109.576 154.305 109.223H154.327ZM153.83 113.794C153.636 114.164 153.362 114.487 153.028 114.738C152.388 115.217 151.599 115.451 150.802 115.399C149.999 115.435 149.21 115.185 148.575 114.693C148.235 114.463 147.955 114.155 147.758 113.794C147.545 113.389 147.44 112.936 147.454 112.479C147.439 112.029 147.542 111.583 147.751 111.185C147.944 110.802 148.224 110.469 148.567 110.212C149.229 109.75 150.026 109.523 150.831 109.565C151.626 109.513 152.414 109.742 153.058 110.212C153.397 110.473 153.676 110.806 153.875 111.185C154.083 111.583 154.186 112.029 154.171 112.479C154.176 112.939 154.061 113.392 153.837 113.794H153.83ZM187.662 109.127C186.871 108.451 185.86 108.089 184.819 108.108C183.653 108.089 182.514 108.455 181.576 109.149V108.272H179.787V118.944H181.621V115.89C182.637 116.513 183.813 116.828 185.005 116.797C185.907 116.826 186.794 116.551 187.521 116.016C188.045 115.63 188.463 115.119 188.739 114.53C189.053 113.901 189.209 113.204 189.192 112.501C189.214 111.804 189.063 111.112 188.753 110.487C188.487 109.957 188.106 109.493 187.64 109.127H187.662ZM187.069 113.772C186.857 114.172 186.557 114.52 186.192 114.79C185.675 115.117 185.082 115.304 184.471 115.332C183.424 115.348 182.406 114.984 181.605 114.307V110.777C181.945 110.368 182.376 110.044 182.863 109.833C183.351 109.621 183.881 109.527 184.412 109.558C185.08 109.539 185.733 109.767 186.244 110.197C186.578 110.47 186.85 110.809 187.046 111.193C187.243 111.576 187.36 111.996 187.387 112.427C187.4 112.898 187.281 113.363 187.046 113.772H187.069ZM220.263 109.223C219.24 108.456 217.984 108.07 216.708 108.131C215.433 108.061 214.175 108.448 213.159 109.223C212.673 109.578 212.273 110.041 211.995 110.576C211.711 111.17 211.563 111.82 211.563 112.479C211.563 113.137 211.711 113.787 211.995 114.381C212.266 114.923 212.666 115.39 213.159 115.741C214.206 116.457 215.443 116.84 216.712 116.84C217.978 116.84 219.217 116.457 220.263 115.741C220.757 115.389 221.159 114.922 221.436 114.381C221.716 113.786 221.862 113.136 221.862 112.479C221.862 111.821 221.716 111.171 221.436 110.576C221.147 110.038 220.738 109.576 220.24 109.223H220.263ZM219.765 113.794C219.571 114.166 219.294 114.489 218.956 114.738C218.318 115.219 217.528 115.453 216.729 115.399C215.927 115.437 215.137 115.186 214.504 114.693C214.163 114.461 213.881 114.154 213.679 113.794C213.472 113.387 213.369 112.935 213.381 112.479C213.369 112.03 213.468 111.585 213.672 111.185C213.87 110.803 214.152 110.471 214.495 110.212C215.156 109.749 215.953 109.522 216.759 109.565C217.554 109.511 218.344 109.74 218.986 110.212C219.329 110.473 219.609 110.805 219.811 111.185C220.019 111.583 220.122 112.029 220.106 112.479C220.099 112.941 219.974 113.393 219.743 113.794H219.765ZM231.42 109.468C230.628 108.793 229.616 108.431 228.577 108.45C227.411 108.431 226.27 108.797 225.333 109.491V108.614H223.545V119.257H225.377V116.202C226.393 116.828 227.569 117.145 228.761 117.116C229.668 117.142 230.555 116.864 231.286 116.328C231.806 115.942 232.222 115.431 232.495 114.842C232.81 114.213 232.965 113.516 232.948 112.813C232.97 112.116 232.821 111.424 232.511 110.799C232.239 110.28 231.86 109.826 231.397 109.468H231.42ZM230.825 114.114C230.613 114.514 230.313 114.862 229.95 115.132C229.433 115.459 228.839 115.646 228.227 115.674C227.18 115.69 226.163 115.325 225.363 114.649V111.118C225.702 110.709 226.134 110.386 226.621 110.174C227.108 109.963 227.637 109.869 228.168 109.9C228.836 109.881 229.489 110.109 230.002 110.539C230.334 110.812 230.607 111.151 230.804 111.535C231.001 111.918 231.117 112.338 231.145 112.768C231.155 113.24 231.039 113.705 230.804 114.114H230.825ZM133.351 93.0063C133.387 92.4575 133.304 91.9072 133.106 91.3938C132.909 90.8804 132.602 90.4162 132.208 90.0335C131.445 89.347 130.441 88.9915 129.417 89.0449C129.078 89.019 128.738 89.019 128.4 89.0449C127.995 89.0682 127.593 89.1228 127.197 89.2084C126.81 89.2948 126.431 89.4117 126.062 89.5578C125.769 89.6703 125.486 89.807 125.216 89.9665L125.728 91.2522C126.258 90.9738 126.822 90.7641 127.405 90.6281C128.03 90.4701 128.677 90.4124 129.32 90.4571C129.771 90.4554 130.212 90.5908 130.585 90.8458C130.957 91.1006 131.244 91.4627 131.406 91.8841C131.538 92.1573 131.604 92.4576 131.599 92.7609C130.754 92.2375 129.772 91.9787 128.778 92.0178C127.95 91.9896 127.13 92.1848 126.403 92.5827C125.975 92.7842 125.605 93.091 125.327 93.4745C124.973 94.0392 124.839 94.7136 124.948 95.3708C125.058 96.0281 125.404 96.6225 125.921 97.042C126.694 97.6246 127.66 97.8903 128.622 97.7851C129.428 97.7529 130.217 97.5501 130.938 97.1905C131.324 96.9973 131.547 96.8858 131.74 96.7743C131.866 97.1148 132.082 97.4152 132.363 97.6439C132.682 97.7693 133.025 97.8176 133.365 97.7851C133.365 97.7851 133.365 95.7933 133.365 95.6373L133.351 93.0063ZM131.569 95.7041C131.443 95.771 131.042 95.9717 130.738 96.0907C130.155 96.3512 129.52 96.4757 128.882 96.4548C128.363 96.4781 127.848 96.3517 127.398 96.0907C127.177 95.9886 126.993 95.8232 126.867 95.6152C126.741 95.4072 126.681 95.1665 126.693 94.9237C126.693 93.8832 127.873 93.3185 129.372 93.363C129.942 93.3456 130.509 93.4601 131.027 93.6975C131.226 93.8079 131.414 93.9347 131.592 94.0764L131.569 95.7041ZM190.758 93.0063C190.796 92.4571 190.714 91.9063 190.516 91.3926C190.319 90.879 190.011 90.415 189.615 90.0335C189.239 89.6908 188.799 89.4268 188.318 89.2571C187.84 89.0874 187.332 89.0152 186.824 89.0449C186.488 89.0227 186.15 89.0227 185.815 89.0449C185.407 89.0738 185.004 89.1308 184.605 89.2159C184.217 89.3001 183.836 89.4168 183.469 89.5651C183.177 89.6785 182.895 89.8126 182.623 89.9665L183.135 91.2522C183.669 90.9787 184.235 90.7715 184.819 90.6354C185.442 90.4771 186.086 90.4194 186.728 90.4644C187.179 90.4628 187.619 90.5983 187.991 90.8531C188.364 91.1081 188.651 91.47 188.813 91.8914C188.95 92.1628 189.02 92.4641 189.013 92.7684C188.167 92.2422 187.18 91.9832 186.185 92.0253C185.359 92.0018 184.541 92.194 183.81 92.5827C183.384 92.7891 183.013 93.098 182.735 93.482C182.441 93.9202 182.294 94.4411 182.319 94.9684C182.301 95.3729 182.383 95.7755 182.559 96.1401C182.736 96.5046 182.999 96.8195 183.328 97.0568C184.102 97.6366 185.068 97.9022 186.03 97.8001C186.838 97.7684 187.629 97.5656 188.353 97.2055C188.731 97.0122 188.953 96.9008 189.147 96.7893C189.279 97.1293 189.496 97.4291 189.778 97.6588C190.095 97.7811 190.434 97.8295 190.773 97.8001C190.773 97.8001 190.773 95.8082 190.773 95.6521L190.758 93.0063ZM188.976 95.6968C188.708 95.8446 188.431 95.9736 188.144 96.0832C187.565 96.351 186.928 96.4759 186.29 96.4474C185.771 96.4755 185.254 96.3515 184.805 96.0907C184.584 95.9874 184.398 95.8204 184.273 95.6114C184.148 95.4021 184.087 95.1601 184.099 94.9164C184.099 93.8759 185.28 93.3185 186.778 93.3555C187.351 93.3387 187.916 93.4557 188.435 93.6975C188.635 93.8053 188.823 93.9322 188.999 94.0764L188.976 95.6968ZM199.642 111.966C199.681 111.417 199.599 110.866 199.4 110.352C199.204 109.838 198.896 109.374 198.499 108.993C198.123 108.65 197.683 108.386 197.205 108.217C196.724 108.047 196.216 107.975 195.708 108.004C195.372 107.982 195.035 107.982 194.699 108.004C194.292 108.03 193.888 108.088 193.49 108.175C193.103 108.258 192.726 108.375 192.36 108.525C192.066 108.633 191.779 108.768 191.508 108.926L192.026 110.212C192.559 109.938 193.122 109.731 193.705 109.595C194.327 109.437 194.972 109.379 195.612 109.424C196.063 109.422 196.505 109.558 196.877 109.813C197.25 110.067 197.535 110.429 197.699 110.851C197.836 111.122 197.904 111.424 197.899 111.728C197.051 111.201 196.067 110.942 195.07 110.985C194.245 110.952 193.427 111.145 192.703 111.542C192.273 111.744 191.903 112.054 191.626 112.441C191.325 112.877 191.177 113.399 191.203 113.928C191.186 114.333 191.269 114.737 191.445 115.102C191.621 115.468 191.885 115.784 192.212 116.024C192.985 116.607 193.952 116.873 194.915 116.767C195.722 116.74 196.514 116.54 197.238 116.18C197.617 115.986 197.84 115.875 198.033 115.764C198.165 116.102 198.383 116.401 198.663 116.633C198.979 116.753 199.32 116.799 199.658 116.767C199.658 116.767 199.658 114.783 199.658 114.626L199.642 111.966ZM197.869 114.656C197.598 114.804 197.318 114.933 197.031 115.043C196.449 115.311 195.813 115.436 195.174 115.407C194.655 115.437 194.139 115.313 193.69 115.05C193.467 114.948 193.281 114.782 193.156 114.572C193.03 114.363 192.969 114.12 192.985 113.876C192.985 112.835 194.158 112.278 195.665 112.315C196.235 112.3 196.801 112.417 197.319 112.657C197.518 112.767 197.707 112.893 197.883 113.036L197.869 114.656Z" fill="white"></path> <path d="M78.1337 52.2734C83.8668 26.6397 82.3011 11.8289 72.9813 4.36661C63.855 -2.94758 48.8479 -1.14181 25.1926 10.3023C-0.694509 22.8287 -5.4825 37.9812 5.59648 49.3967C12.4283 56.4261 22.3687 53.1791 29.7984 58.8927C37.0571 64.8226 36.4878 75.099 44.6007 80.2941C57.8658 88.8616 71.8597 80.351 78.1337 52.2734Z" fill="url(#paint0_linear_1025_1050)"></path> </g> <defs> <linearGradient id="paint0_linear_1025_1050" x1="74.5071" y1="7.34583" x2="25.2297" y2="63.1432" gradientUnits="userSpaceOnUse"> <stop offset="0.05" stop-color="#EDEDED"></stop> <stop offset="0.22" stop-color="#D6D6D6"></stop> <stop offset="0.49" stop-color="#BBBBBB"></stop> <stop offset="0.62" stop-color="#AEAEAE"></stop> <stop offset="1" stop-color="#8B8B8B"></stop> </linearGradient> <clipPath id="clip0_1025_1050"> <rect width="348" height="120" fill="white"></rect> </clipPath> </defs> </svg> 