<?xml version="1.0" encoding="UTF-8"?> <svg xmlns="http://www.w3.org/2000/svg" width="167" height="55" viewBox="0 0 167 55" fill="none"> <g clip-path="url(#clip0_2574_264)"> <path d="M0 21.0264H166.718V54.8337H0V21.0264Z" fill="white"></path> <path d="M21.7267 48.0981C20.0979 49.8521 17.6791 51.2643 14.6667 51.2643C8.15039 51.2643 3.9541 46.8295 3.9541 40.0533C3.9541 33.2291 9.08688 28.4513 16.0991 28.4513C18.4691 28.4513 20.1956 28.9389 21.7267 30.0125V16.7529H25.6766V50.8754H21.7267V48.0981ZM21.7267 44.6842V33.8152C19.8515 32.6431 18.0741 32.1072 16.2467 32.1072C11.8529 32.1072 8.15039 35.1289 8.15039 39.956C8.15039 44.7827 11.2615 47.6094 15.4079 47.6094C17.9753 47.6094 20.3453 46.1962 21.7267 44.6842ZM34.6529 18.3612C35.8891 18.3612 37.0719 19.287 37.0719 20.7024C37.0719 22.3096 35.8879 23.2364 34.6529 23.2364C33.2717 23.2364 32.0868 22.3096 32.0868 20.7024C32.0868 19.287 33.2717 18.3612 34.6529 18.3612ZM32.5803 28.9389H36.5304V50.8754H32.5803V28.9389ZM53.7365 51.0714H50.8705L40.5531 28.9389H45.1931L50.5755 40.7864C51.2168 42.1983 51.9079 44.0521 52.4506 45.6603C52.9453 44.0521 53.6367 42.1502 54.2792 40.6878L59.365 28.9389H63.5604L53.7365 51.0714ZM67.0383 30.4497C69.0121 29.2314 71.6784 28.4513 74.4445 28.4513C80.7644 28.4513 82.9855 31.7162 82.9855 37.4208V50.8754H79.2332V48.0476C77.8996 49.7054 75.776 51.218 72.1233 51.218C68.0757 51.218 65.3096 48.682 65.3096 44.4401C65.3096 39.956 68.9146 37.4689 73.7042 37.4689C75.4309 37.4689 77.7509 37.8119 79.2332 38.8833C79.2332 34.7902 78.5907 31.9605 74.1959 31.9605C71.4808 31.9605 69.8509 32.6431 68.0745 33.5699L67.0383 30.4497ZM79.2332 44.8804V42.0998C77.8496 41.1269 76.1721 40.6385 74.2457 40.6385C71.8759 40.6385 69.5059 41.7108 69.5059 44.2472C69.5059 46.342 70.9372 47.707 73.507 47.707C76.4173 47.707 78.096 46.1962 79.2332 44.8804ZM89.0874 28.9389H93.0373V31.6209C94.5675 29.9621 97.3823 28.5499 100.295 28.5499C106.07 28.5499 109.527 31.3273 109.527 38.202V50.8754H105.576V38.9314C105.576 34.3499 103.455 32.2058 99.3074 32.2058C96.7886 32.2058 94.4686 33.4263 93.0373 35.0312V50.8754H89.0874V28.9389ZM117.842 45.6603C116.114 45.6603 115.029 46.9773 115.029 48.2438C115.029 49.7054 116.114 51.0221 117.842 51.0221C119.374 51.0221 120.459 49.7054 120.459 48.2438C120.459 46.9761 119.374 45.6603 117.842 45.6603ZM130.432 31.5223V28.9389H126.483V50.8763H130.432V35.3248C131.27 33.7154 132.507 32.2049 135.073 32.2049C136.407 32.2049 136.999 32.3996 138.084 33.0329L139.465 29.3771C138.725 28.8403 137.838 28.5488 136.01 28.5488C133.198 28.5488 131.568 29.8646 130.432 31.5223ZM158.821 44.441C157.438 46.1962 155.019 47.707 152.453 47.707C148.405 47.707 146.724 45.2705 146.724 41.126V28.9389H142.775V42.0036C142.775 48.4377 146.033 51.3617 150.971 51.3617C154.476 51.3617 157.291 49.6068 158.821 47.7551V50.8754H162.77V28.9389H158.821V44.441Z" fill="black"></path> <path d="M0.534823 6.20544C0.499181 4.52617 1.94865 3.13275 3.62387 3.15655C4.70502 3.15655 5.57234 3.66868 6.08321 4.51427L5.20404 5.20502C4.78819 4.60954 4.26543 4.31179 3.63574 4.31179C2.59022 4.31179 1.80608 5.14548 1.80608 6.20544C1.80608 7.27731 2.59022 8.111 3.63574 8.111C4.25355 8.111 4.77632 7.81325 5.20404 7.22968L6.08321 7.90852C5.56047 8.75411 4.68128 9.26624 3.62387 9.26624C1.90113 9.26624 0.534823 7.90852 0.534823 6.20544Z" fill="white"></path> <path d="M12.4602 7.36024C12.4602 8.4083 11.6167 9.13478 10.3811 9.13478H7.47021V3.28711H10.0365C11.1889 3.28711 11.9968 3.91832 11.9968 4.88301C11.9968 5.32367 11.8068 5.7286 11.4622 5.97871C12.0919 6.2169 12.4602 6.69329 12.4602 7.36024ZM8.69393 4.29944V5.62142H9.98898C10.5474 5.62142 10.8206 5.39514 10.8206 4.95448C10.8206 4.51382 10.5474 4.29944 9.98898 4.29944H8.69393ZM11.2721 7.3364C11.2721 6.87194 10.8919 6.58609 10.2622 6.58609H8.69393V8.13435H10.2622C10.8919 8.13435 11.2721 7.8128 11.2721 7.3364Z" fill="white"></path> <path d="M13.6105 6.20482C13.5749 4.52555 15.0124 3.13213 16.6877 3.15593C18.3866 3.12019 19.8242 4.54938 19.7886 6.20482C19.8242 7.86026 18.3866 9.30135 16.6877 9.26562C15.0124 9.30135 13.5749 7.86026 13.6105 6.20482ZM18.5054 6.21672C18.5054 5.13295 17.7094 4.29927 16.6995 4.29927C15.6659 4.29927 14.8818 5.13295 14.8818 6.21672C14.8818 7.30053 15.6659 8.11038 16.6877 8.11038C17.7213 8.11038 18.5054 7.27669 18.5054 6.21672Z" fill="white"></path> <path d="M26.4704 6.62166H22.122C22.2765 7.57445 23.025 8.15802 24.023 8.15802C24.6289 8.15802 25.1992 7.93174 25.7219 7.46724L26.316 8.32476C25.6506 8.95597 24.8784 9.26562 23.9873 9.26562C22.2052 9.26562 20.8508 7.94364 20.8508 6.21673C20.8151 4.53746 22.217 3.1202 23.8685 3.15593C25.413 3.15593 26.5655 4.31118 26.5655 5.83564C26.5655 6.08572 26.5298 6.34774 26.4704 6.62166ZM22.1458 5.64506H25.318C25.3061 4.75184 24.6408 4.2159 23.821 4.2159C23.0012 4.2159 22.3359 4.77567 22.1458 5.64506Z" fill="white"></path> <path d="M31.3364 9.13478V3.28711H32.5957V5.52612H35.1025V3.28711H36.35V9.13478H35.1025V6.60992H32.5957V9.13478H31.3364Z" fill="white"></path> <path d="M42.8035 5.59774V9.13493H41.6393V8.47989C41.2114 8.99202 40.5701 9.26594 39.7741 9.26594C38.5502 9.26594 37.7422 8.58706 37.7422 7.57476C37.7422 6.56243 38.5739 5.90739 39.8928 5.90739H41.5442V5.52627C41.5442 4.71642 41.0927 4.27576 40.2967 4.27576C39.6433 4.27576 39.1681 4.56161 38.6809 5.14518L37.9563 4.40676C38.5382 3.56118 39.4056 3.15625 40.4154 3.15625C41.853 3.15625 42.8035 4.02567 42.8035 5.59774ZM41.5442 6.91972V6.81252H40.0472C39.3819 6.81252 39.0134 7.05073 39.0134 7.52713C39.0134 8.01543 39.4293 8.30124 40.0352 8.30124C40.8789 8.30124 41.5442 7.71767 41.5442 6.91972Z" fill="white"></path> <path d="M49.2209 3.15607H49.6487V9.13475H48.3892V5.50228L44.9913 9.26576H44.5518V3.28708H45.811V6.94334L49.2209 3.15607ZM45.3241 0.345385V0H46.3456V0.333474C46.3456 1.03615 46.6664 1.41725 47.2367 1.41725C47.8189 1.41725 48.1397 1.03615 48.1397 0.333474V0H49.1735V0.345385C49.1735 1.52444 48.3892 2.32239 47.2367 2.32239C46.0961 2.32239 45.3241 1.52444 45.3241 0.345385Z" fill="white"></path> <path d="M56.397 8.05101H57.3594V10.8141H56.1476V9.13478H51.8586V10.8141H50.6348V8.05101H51.2881C51.7753 7.52698 51.9774 6.55038 52.0247 4.84728L52.0724 3.28711H56.397V8.05101ZM52.5833 8.05101H55.1495V4.37091H53.2009L53.1892 4.96638C53.1536 6.38364 52.9515 7.40787 52.5833 8.05101Z" fill="white"></path> <path d="M63.8067 6.62166H59.4584C59.6128 7.57445 60.3615 8.15802 61.3593 8.15802C61.9652 8.15802 62.5355 7.93174 63.0584 7.46724L63.6523 8.32476C62.987 8.95597 62.2147 9.26562 61.3236 9.26562C59.5415 9.26562 58.1872 7.94364 58.1872 6.21673C58.1515 4.53746 59.5535 3.1202 61.2049 3.15593C62.7496 3.15593 63.9018 4.31118 63.9018 5.83564C63.9018 6.08572 63.8664 6.34774 63.8067 6.62166ZM59.4821 5.64506H62.6545C62.6425 4.75184 61.9772 4.2159 61.1575 4.2159C60.3375 4.2159 59.6722 4.77567 59.4821 5.64506Z" fill="white"></path> <path d="M66.4035 9.13478V4.37091H64.5264V3.28711H69.5283V4.37091H67.6511V9.13478H66.4035Z" fill="white"></path> <path d="M70.2541 6.20544C70.2184 4.52617 71.668 3.13275 73.3431 3.15655C74.4243 3.15655 75.2916 3.66868 75.8025 4.51427L74.9232 5.20502C74.5073 4.60954 73.9847 4.31179 73.3551 4.31179C72.3093 4.31179 71.5253 5.14548 71.5253 6.20544C71.5253 7.27731 72.3093 8.111 73.3551 8.111C73.9727 8.111 74.4956 7.81325 74.9232 7.22968L75.8025 7.90852C75.2797 8.75411 74.4006 9.26624 73.3431 9.26624C71.6203 9.26624 70.2541 7.90852 70.2541 6.20544Z" fill="white"></path> <path d="M79.1646 3.28711H81.6477V9.13478H80.4001V7.16969H79.5328L78.0241 9.13478H76.5864L78.2615 7.00295C77.4418 6.70519 76.9546 6.07399 76.9546 5.2284C76.9546 4.04933 77.822 3.28711 79.1646 3.28711ZM80.4001 6.10972V4.37091H79.224C78.606 4.37091 78.2378 4.70437 78.2378 5.2403C78.2378 5.77624 78.618 6.10972 79.2359 6.10972H80.4001Z" fill="white"></path> </g> <defs> <clipPath id="clip0_2574_264"> <rect width="167" height="55" fill="white"></rect> </clipPath> </defs> </svg> 