<?xml version="1.0" encoding="UTF-8"?> <svg xmlns="http://www.w3.org/2000/svg" width="95" height="12" viewBox="0 0 95 12" fill="none"> <g clip-path="url(#clip0_1025_1069)"> <path fill-rule="evenodd" clip-rule="evenodd" d="M7.64331 0.219727H0V11.8051L7.64331 0.219727ZM15.2866 11.8051V0.219727H7.64331L15.2866 11.8051Z" fill="white"></path> <path d="M20.8438 11.8053H24.0429C27.1394 11.8053 29.5021 9.55163 29.5021 6.61017C29.5021 3.6687 27.1394 1.41504 24.0429 1.41504H20.8438V11.8053ZM22.5607 10.2102V3.01017H24.0429C26.2736 3.01017 27.7557 4.57602 27.7557 6.61017C27.7557 8.64431 26.2736 10.2102 24.0429 10.2102H22.5607Z" fill="white"></path> <path d="M34.5168 11.9515C36.6888 11.9515 38.3617 10.2686 38.3617 8.14668C38.3617 6.02473 36.6888 4.3418 34.5168 4.3418C32.3449 4.3418 30.6719 6.02473 30.6719 8.14668C30.6719 10.2686 32.3449 11.9515 34.5168 11.9515ZM34.5168 10.4588C33.2108 10.4588 32.3009 9.44912 32.3009 8.14668C32.3009 6.84424 33.2108 5.83449 34.5168 5.83449C35.8083 5.83449 36.7181 6.84424 36.7181 8.14668C36.7181 9.44912 35.8083 10.4588 34.5168 10.4588Z" fill="white"></path> <path d="M39.9854 11.8052H41.5997V6.96132C41.9078 6.27351 42.5242 5.80522 43.4047 5.80522C44.4466 5.80522 45.019 6.52229 45.019 7.69302V11.8052H46.6332V7.42961C46.6332 5.55644 45.5032 4.3418 43.7569 4.3418C42.8764 4.3418 42.1133 4.63449 41.5997 5.26375V4.48815H39.9854V11.8052Z" fill="white"></path> <path d="M59.5051 4.59065C59.5051 2.81992 58.1551 1.41504 56.0419 1.41504H52.3438V11.8053H54.0607V7.76626H56.0419C58.1551 7.76626 59.5051 6.36139 59.5051 4.59065ZM57.8176 4.59065C57.8176 5.4687 57.2011 6.15651 56.0271 6.15651H54.0607V3.0248H56.0271C57.2011 3.0248 57.8176 3.7126 57.8176 4.59065Z" fill="white"></path> <path d="M61.0098 11.8053H62.624V1.41504H61.0098V11.8053Z" fill="white"></path> <path d="M67.9334 11.9515C68.8139 11.9515 69.5623 11.6588 70.076 11.1174V11.8052H71.6902V4.48815H70.076V5.16132C69.5623 4.63449 68.8139 4.3418 67.9334 4.3418C65.7615 4.3418 64.2793 6.0979 64.2793 8.14668C64.2793 10.1954 65.7615 11.9515 67.9334 11.9515ZM68.1242 10.4881C66.8328 10.4881 65.9376 9.43449 65.9376 8.14668C65.9376 6.85888 66.8328 5.80522 68.1242 5.80522C69.0634 5.80522 69.6797 6.24424 70.076 6.81497V9.46376C69.6797 10.0491 69.0634 10.4881 68.1242 10.4881Z" fill="white"></path> <path d="M74.5692 11.8053H76.1835V5.92236H78.2821V4.48822H76.1835V3.91748C76.1835 3.09797 76.5651 2.89309 77.3429 2.89309H78.2821V1.41504H77.064C75.6552 1.41504 74.5692 2.16139 74.5692 3.80041V4.48822H73.043V5.92236H74.5692V11.8053Z" fill="white"></path> <path d="M82.7131 11.9515C84.885 11.9515 86.558 10.2686 86.558 8.14668C86.558 6.02473 84.885 4.3418 82.7131 4.3418C80.5412 4.3418 78.8682 6.02473 78.8682 8.14668C78.8682 10.2686 80.5412 11.9515 82.7131 11.9515ZM82.7131 10.4588C81.407 10.4588 80.4972 9.44912 80.4972 8.14668C80.4972 6.84424 81.407 5.83449 82.7131 5.83449C84.0045 5.83449 84.9144 6.84424 84.9144 8.14668C84.9144 9.44912 84.0045 10.4588 82.7131 10.4588Z" fill="white"></path> <path d="M88.1816 11.8052H89.7958V6.96132C90.104 6.27351 90.7204 5.80522 91.6009 5.80522C92.6428 5.80522 93.2151 6.52229 93.2151 7.69302V11.8052H94.8294V7.42961C94.8294 5.55644 93.6994 4.3418 91.9531 4.3418C91.0726 4.3418 90.3095 4.63449 89.7958 5.26375V4.48815H88.1816V11.8052Z" fill="white"></path> </g> <defs> <clipPath id="clip0_1025_1069"> <rect width="95" height="12" fill="white"></rect> </clipPath> </defs> </svg> 