<?xml version="1.0" encoding="UTF-8"?> <svg xmlns="http://www.w3.org/2000/svg" width="727" height="362" viewBox="0 0 727 362" fill="none"> <path d="M112.915 92.2901H145.821C164.896 92.2901 173.839 96.9394 181.707 104.57C189.337 112.081 193.391 122.335 193.391 134.138C193.391 146.417 188.861 157.267 180.277 164.778C172.408 171.693 160.724 175.746 145.821 175.746H112.915V92.2901ZM145.225 156.551C163.585 156.551 170.739 147.849 170.739 134.138C170.739 120.069 163.585 111.485 145.225 111.485H135.568V156.551H145.225Z" fill="white"></path> <path d="M242.167 90.5609C268.992 90.5609 286.518 109.757 286.518 134.078C286.518 158.28 268.992 177.476 242.167 177.476C215.223 177.476 197.816 158.28 197.816 134.078C197.816 109.757 215.223 90.5609 242.167 90.5609ZM242.167 158.28C255.639 158.28 263.866 149.22 263.866 134.078C263.866 118.817 255.639 109.757 242.167 109.757C228.695 109.757 220.468 118.817 220.468 134.078C220.468 149.22 228.695 158.28 242.167 158.28Z" fill="white"></path> <path d="M368.342 92.2901H445.599V111.962H418.774V175.746H395.167V111.962H368.342V92.2901Z" fill="white"></path> <path d="M198.412 187.065H244.909C262.673 187.065 271.853 196.127 271.853 207.572C271.853 215.441 268.277 219.852 264.939 222.475C262.912 223.905 260.645 224.979 258.024 225.575V226.291C261.243 227.005 264.223 228.197 266.965 229.867C271.376 232.848 276.027 237.736 276.027 246.796C276.027 260.388 265.057 270.522 244.909 270.522H198.412V187.065ZM241.571 219.017C246.697 219.017 249.797 215.679 249.797 211.625C249.797 207.572 246.697 204.233 241.571 204.233H221.064V219.017H241.571ZM243.24 253.353C248.963 253.353 253.135 249.419 253.135 244.412C253.135 239.286 248.963 235.351 243.24 235.351H221.064V253.353H243.24Z" fill="white"></path> <path d="M321.927 185.337C339.452 185.337 350.54 192.967 356.502 201.194C360.079 205.842 362.463 211.566 363.775 217.646H341.719C340.764 215.142 339.572 213.115 337.903 211.089C334.803 207.87 330.033 204.531 321.927 204.531C308.812 204.531 300.228 213.593 300.228 228.853C300.228 243.875 308.812 253.056 321.927 253.056C330.033 253.056 334.803 249.835 337.903 246.617C339.572 244.59 340.764 242.563 341.719 240.059H364.012C363.059 246.021 360.556 251.625 356.86 256.393C350.54 264.501 339.095 272.25 321.45 272.25C295.579 272.25 277.576 253.77 277.576 228.853C277.576 203.935 296.056 185.337 321.927 185.337Z" fill="white"></path> <path d="M367.963 187.065H390.615V221.401H391.331L421.136 187.065H447.007L410.763 227.363L450.107 270.522H422.686L391.331 235.471H390.615V270.522H367.963V187.065Z" fill="white"></path> <path d="M451.56 187.065H474.212V236.067H474.928L510.217 187.065H532.869V270.522H510.217V221.521H509.501L474.212 270.522H451.56V187.065Z" fill="white"></path> <path d="M540.024 187.065H562.676V236.067H563.391L598.682 187.065H621.334V270.522H598.682V221.521H597.966L562.676 270.522H540.024V187.065ZM601.543 173.355H560.411C562.795 182.416 569.472 188.855 581.036 188.855C592.72 188.855 599.635 182.416 601.543 173.355Z" fill="white"></path> <path d="M149.875 185.337C176.819 185.337 193.391 204.77 193.391 228.853C193.391 230.761 193.272 232.071 193.033 233.741H128.415C129.487 244.233 136.999 253.056 149.875 253.056C158.339 253.056 162.632 250.67 165.612 248.166C167.281 246.737 168.592 245.068 169.547 243.278H192.915C191.007 248.763 188.264 253.531 184.449 257.943C178.011 265.097 167.52 272.25 149.875 272.25C123.765 272.25 105.523 253.652 105.523 228.853C105.523 204.531 123.049 185.337 149.875 185.337ZM170.381 220.03C168.473 210.97 161.559 204.531 149.875 204.531C138.309 204.531 131.633 210.97 129.249 220.03H170.381Z" fill="white"></path> <path d="M488.4 158.28C474.928 158.28 466.702 149.22 466.702 134.078C466.702 118.817 474.928 109.757 488.4 109.757C501.872 109.757 510.099 118.817 510.099 134.078C510.099 149.22 501.872 158.28 488.4 158.28ZM509.026 92.3489V102.841H508.354C504.554 96.2316 494.484 90.5609 483.631 90.5609C460.263 90.5609 444.05 109.757 444.05 134.078C444.05 158.28 460.263 177.476 483.631 177.476C494.338 177.476 504.5 172.262 508.336 165.434H509.026V175.806H531.678V92.3489H509.026Z" fill="white"></path> <path d="M332.575 124.122C323.515 122.096 316.48 119.95 316.48 115.181C316.48 112.201 319.341 109.101 328.164 109.34C333.648 109.458 338.059 111.724 340.205 113.63C342.381 115.59 344.057 118.145 345.06 121.294H367.803C366.536 115.174 363.941 109.18 359.4 103.617C353.677 96.7022 344.616 90.5022 328.164 90.5022C305.631 90.5022 292.636 102.782 292.636 116.373C292.636 131.276 305.153 137 318.149 140.337C330.787 143.556 343.305 145.345 343.305 151.664C343.305 155.24 339.728 158.817 330.548 158.697C323.156 158.578 318.745 156.313 316.241 153.809C314.811 152.378 312.307 148.325 311.711 145.106H289.059C290.132 151.545 293.947 159.532 297.404 163.705C303.485 170.977 313.141 177.534 330.548 177.534C354.869 177.534 367.149 164.54 367.149 150.472C367.149 131.873 347.24 127.581 332.575 124.122Z" fill="white"></path> </svg> 