<?xml version="1.0" encoding="UTF-8"?> <svg xmlns="http://www.w3.org/2000/svg" width="193" height="32" viewBox="0 0 193 32" fill="none"> <path d="M42.3859 21.7842H39.6484V9.67578H42.3859V14.2764H43.935L47.2751 9.67578H50.6152L46.1589 15.4393L50.8571 21.7842H47.517L43.935 16.9162H42.3859V21.7842Z" fill="white"></path> <path d="M55.5558 20.5956V27.1102H52.8184V9.6755H55.5558V11.0548C56.5489 10.0363 57.9282 9.43359 59.5495 9.43359C62.8429 9.43359 65.4106 12.0989 65.4106 15.7276C65.4106 19.3605 62.6986 22.0216 59.2863 22.0216C57.7373 22.0258 56.4768 21.4911 55.5558 20.5956ZM58.9935 19.5091C61.124 19.5091 62.5543 18.0321 62.5543 15.7318C62.5543 13.4782 61.124 11.9546 59.0444 11.9546C56.9606 11.9546 55.5558 13.4315 55.5558 15.7318C55.5558 17.9812 56.9351 19.5091 58.9935 19.5091Z" fill="white"></path> <path d="M79.7935 16.5506H70.325C70.639 18.3671 71.9717 19.5045 73.8348 19.5045C75.6513 19.5045 76.4237 18.7787 76.8142 18.1506H79.6492C78.8259 20.3278 76.7208 22.0255 73.6693 22.0255C70.1807 22.0255 67.4941 19.3135 67.4941 15.7315C67.4941 12.1707 70.2316 9.4375 73.6693 9.4375C77.1579 9.4375 79.8444 12.1749 79.8444 15.7315C79.8402 16.0201 79.8147 16.3342 79.7935 16.5506ZM70.4226 14.3479H76.9118C76.5001 12.8964 75.3627 11.95 73.7414 11.95C71.9971 11.9542 70.8342 12.8498 70.4226 14.3479Z" fill="white"></path> <path d="M83.9317 25.0521H81.3174V19.3608H82.7222C83.3291 18.6351 83.8596 16.8653 83.9827 9.67578H93.3791V19.3608H95.1701V25.0521H92.5557V21.7842H83.936V25.0521H83.9317ZM86.5716 12.0992C86.474 16.1438 86.1344 18.2743 85.6294 19.365H90.6416V12.0992H86.5716Z" fill="white"></path> <path d="M100.445 21.7842H97.708V9.67578H100.445V17.5953L106.158 9.67578H108.895V21.7842H106.158V13.8647L100.445 21.7842Z" fill="white"></path> <path d="M121.241 14.518C120.829 12.9944 119.641 11.9503 117.973 11.9503C115.915 11.9503 114.535 13.474 114.535 15.7276C114.535 17.9303 115.94 19.5048 117.973 19.5048C119.717 19.5048 120.855 18.4862 121.241 16.9371H124C123.49 19.8443 121.071 22.0216 117.897 22.0216C114.408 22.0216 111.675 19.2629 111.675 15.7276C111.675 12.1923 114.433 9.43359 117.897 9.43359C121.046 9.43359 123.465 11.5896 124 14.518H121.241Z" fill="white"></path> <path d="M131.992 21.7799H129.254V12.0482H124.823V9.67578H136.422V12.0482H131.992V21.7799Z" fill="white"></path> <path d="M150.076 15.7315C150.076 19.2668 147.241 22.0255 143.659 22.0255C140.052 22.0255 137.242 19.2668 137.242 15.7315C137.242 12.1962 140.077 9.4375 143.659 9.4375C147.271 9.43326 150.076 12.1962 150.076 15.7315ZM147.22 15.7315C147.22 13.5288 145.769 11.9543 143.659 11.9543C141.529 11.9543 140.098 13.4779 140.098 15.7315C140.098 17.9342 141.55 19.5087 143.659 19.5087C145.794 19.5087 147.22 17.9809 147.22 15.7315Z" fill="white"></path> <path d="M155.597 20.5956V27.1102H152.859V9.6755H155.597V11.0548C156.59 10.0363 157.969 9.43359 159.591 9.43359C162.884 9.43359 165.452 12.0989 165.452 15.7276C165.452 19.3605 162.74 22.0216 159.327 22.0216C157.774 22.0258 156.518 21.4911 155.597 20.5956ZM159.035 19.5091C161.165 19.5091 162.595 18.0321 162.595 15.7318C162.595 13.4782 161.165 11.9546 159.086 11.9546C157.002 11.9546 155.597 13.4315 155.597 15.7318C155.597 17.9812 156.976 19.5091 159.035 19.5091Z" fill="white"></path> <path d="M170.851 21.7842H168.113V9.67578H170.851V17.5953L176.563 9.67578H179.301V21.7842H176.563V13.8647L170.851 21.7842Z" fill="white"></path> <path d="M187.823 17.8329L185.158 21.7799H182.009L184.865 17.4934C183.435 16.9374 182.225 15.5793 182.225 13.7416C182.225 11.2716 183.991 9.67578 186.609 9.67578H193.001V21.7842H190.264V17.8372H187.823V17.8329ZM187.216 15.4095H190.268V12.0907H187.072C185.79 12.0907 185.209 12.7697 185.209 13.7628C185.209 14.7347 185.909 15.4095 187.216 15.4095Z" fill="white"></path> <path d="M14.2262 0V7.26164C18.9074 7.26164 22.7016 11.0559 22.7016 15.7371C22.7016 20.4183 18.9074 24.2125 14.2262 24.2125V21.1865C10.4829 21.1865 7.42292 18.2326 7.26589 14.5275H0C0.161275 22.2433 6.468 28.4481 14.2262 28.4481V31.4742C22.9181 31.4742 29.9633 24.429 29.9633 15.7371C29.9633 7.04519 22.9181 0 14.2262 0Z" fill="white"></path> <path d="M14.2262 7.25904V3.02344C8.04255 3.02344 3.03027 8.03571 3.03027 14.2193C3.03027 14.3212 3.03452 14.4231 3.03452 14.5207H7.27436C7.27012 14.4231 7.26588 14.3212 7.26588 14.2193C7.26588 10.3742 10.3853 7.25904 14.2262 7.25904Z" fill="white"></path> </svg> 