<?xml version="1.0" encoding="UTF-8"?> <svg xmlns="http://www.w3.org/2000/svg" width="194" height="24" viewBox="0 0 194 24" fill="none"> <g clip-path="url(#clip0_593_2344)"> <path d="M162.936 4.01428V20.0102C162.936 20.3651 163.071 20.6588 163.329 20.9159C163.587 21.1729 163.894 21.3075 164.238 21.3075H184.247V24H164.238C163.12 24 162.174 23.6084 161.388 22.8373C160.614 22.0663 160.221 21.1239 160.221 20.0102V4.01428C160.221 2.90056 160.614 1.95819 161.388 1.18715C162.162 0.416116 163.12 0.0244788 164.238 0.0244788H184.247V2.71698H164.238C163.882 2.71698 163.587 2.85161 163.329 3.10862C163.071 3.36563 162.936 3.65936 162.936 4.01428ZM153.834 0H133.763V2.81489L153.834 2.77818C154.19 2.77818 154.485 2.9128 154.755 3.16981C155.013 3.42682 155.148 3.73279 155.148 4.07547V11.0882C155.148 11.4431 155.013 11.7369 154.755 11.9816C154.497 12.2264 154.19 12.3488 153.834 12.3488L133.763 12.3978V23.9878H136.478V14.9434C137.043 15.0291 137.485 15.078 137.78 15.078H153.846C154.964 15.078 155.91 14.6864 156.696 13.9031C157.47 13.1198 157.863 12.1775 157.863 11.0882V3.9898C157.863 2.88832 157.47 1.95819 156.696 1.17491C155.91 0.391638 154.952 0 153.834 0ZM125.227 0H106.126V5.27486L124.956 5.25038V10.9903H106.126V24H111.31V16.155L118.201 16.1183L124.858 24H130.214V22.2376L124.993 16.1183C126.516 16.1183 127.769 15.641 128.752 14.6741C129.722 13.7073 130.214 12.5569 130.214 11.2106V4.94442C130.214 3.59816 129.722 2.43549 128.752 1.46864C127.769 0.489546 126.602 0 125.227 0ZM80.602 24H102.847V18.8108H85.8469V14.6252H99.5303V9.436H85.8469V5.25038H102.847V0H80.602V24ZM73.1707 0H54.0704V5.22591L72.9128 5.25038V11.027H54.0704V24H59.2539V16.155L73.1707 16.1183C74.5464 16.1183 75.7133 15.641 76.696 14.6741C77.6663 13.7073 78.1577 12.5569 78.1577 11.2106V4.94442C78.1577 3.59816 77.6663 2.43549 76.696 1.46864C75.7133 0.489546 74.5464 0 73.1707 0ZM39.5517 9.47272L31.9853 0.0244788H25.7946C28.0179 3.0719 31.7274 8.07751 36.9354 15.0413V24H42.1558V15.078L53.3334 0.0244788H47.0813L39.5517 9.47272ZM19.4074 9.436H5.18349V0.0244788H0V24H5.18349V14.6252H19.4074V24H24.5909V0.0244788H19.4074V9.436ZM194 3.05966C194 4.7486 192.624 6.11933 190.929 6.11933C189.234 6.11933 187.858 4.7486 187.858 3.05966C187.858 1.37073 189.234 0 190.929 0C192.624 0 194 1.37073 194 3.05966ZM193.374 3.05966C193.374 1.71341 192.268 0.611933 190.917 0.611933C189.566 0.611933 188.46 1.71341 188.46 3.05966C188.46 4.40592 189.566 5.50739 190.917 5.50739C192.268 5.50739 193.374 4.40592 193.374 3.05966ZM192.329 4.41815H191.826L190.831 3.24324H190.045C190.008 3.24324 189.971 3.24324 189.922 3.231H189.91V4.41815H189.517V1.70117H191.801C191.936 1.70117 192.035 1.75013 192.121 1.8358C192.207 1.92147 192.244 2.03162 192.244 2.14176V2.80265C192.244 2.92504 192.207 3.02295 192.121 3.10862C192.035 3.19429 191.936 3.24324 191.801 3.24324H191.359L192.329 4.41815ZM191.728 2.8516C191.764 2.8516 191.801 2.83937 191.826 2.81489C191.85 2.79041 191.875 2.7537 191.875 2.70474V2.22744C191.875 2.17848 191.863 2.14176 191.826 2.11729C191.801 2.09281 191.764 2.08057 191.728 2.08057H190.057C190.02 2.08057 189.983 2.09281 189.959 2.11729C189.934 2.14176 189.91 2.17848 189.91 2.22744V2.70474C189.91 2.7537 189.922 2.79041 189.959 2.81489C189.996 2.83937 190.02 2.8516 190.057 2.8516H191.728Z" fill="white"></path> </g> <defs> <clipPath id="clip0_593_2344"> <rect width="194" height="24" fill="white"></rect> </clipPath> </defs> </svg> 