<?xml version="1.0" encoding="UTF-8"?> <!-- Generator: Adobe Illustrator 24.2.3, SVG Export Plug-In . SVG Version: 6.00 Build 0) --> <svg xmlns="http://www.w3.org/2000/svg" xmlns:xlink="http://www.w3.org/1999/xlink" id="Слой_1" x="0px" y="0px" viewBox="0 0 1000 1000" style="enable-background:new 0 0 1000 1000;" xml:space="preserve"> <style type="text/css"> .st0{clip-path:url(#SVGID_2_);fill:#fff;} .st1{clip-path:url(#SVGID_2_);fill:#fff;} </style> <g> <defs> <rect id="SVGID_1_" x="0" y="331.35" width="1000" height="337.3"></rect> </defs> <clipPath id="SVGID_2_"> <use xlink:href="#SVGID_1_" style="overflow:visible;"></use> </clipPath> <path class="st0" d="M615.6,456.15h-24.68c-1.94,0-3.83,0.78-5.21,2.17l-31.54,31.49v-26.28c0-4.09-3.3-7.38-7.37-7.38 c-4.08,0-7.39,3.3-7.39,7.38v89.57c0,4.07,3.31,7.38,7.39,7.38c4.07,0,7.37-3.31,7.37-7.38v-42.44l39.81-39.76h21.61 c4.07,0,7.38-3.3,7.38-7.37C622.98,459.45,619.67,456.15,615.6,456.15"></path> <path class="st0" d="M497.02,545.72H435.6V515.7h51.9c4.07,0,7.37-3.3,7.37-7.38c0-4.08-3.3-7.38-7.37-7.38h-51.9V470.9h61.42 c4.07,0,7.38-3.3,7.38-7.38s-3.31-7.38-7.38-7.38h-68.79c-4.08,0-7.39,3.3-7.39,7.38v0v89.58c0,4.08,3.31,7.37,7.39,7.37h0.02 h68.77c4.07,0,7.38-3.3,7.38-7.37C504.41,549.03,501.1,545.72,497.02,545.72"></path> <path class="st0" d="M341.69,560.48c-2.88,0-5.49-1.67-6.69-4.27l-41.66-89.57c-1.73-3.69-0.12-8.09,3.58-9.8 c3.71-1.71,8.09-0.12,9.8,3.58l34.97,75.2l34.95-75.2c1.72-3.69,6.1-5.29,9.8-3.58c3.7,1.72,5.3,6.11,3.58,9.8l-41.66,89.57 C347.17,558.81,344.55,560.48,341.69,560.48"></path> <path class="st0" d="M861.15,456.15h-24.68c-1.94,0-3.83,0.78-5.22,2.17l-31.53,31.49v-26.28c0-4.09-3.31-7.38-7.36-7.38 c-4.08,0-7.39,3.3-7.39,7.38v89.57c0,4.07,3.31,7.38,7.39,7.38c4.06,0,7.36-3.31,7.36-7.38v-42.44l39.8-39.76h21.63 c4.07,0,7.38-3.3,7.38-7.37C868.53,459.45,865.22,456.15,861.15,456.15"></path> <path class="st0" d="M733.46,560.48c-4.07,0-7.37-3.31-7.37-7.38v-20.22c0-4.08,3.3-7.39,7.37-7.39s7.38,3.31,7.38,7.39v20.22 C740.84,557.17,737.53,560.48,733.46,560.48"></path> <path class="st0" d="M107.19,495.73l39.97-26.02c3.41-2.23,4.37-6.79,2.15-10.2c-2.22-3.42-6.79-4.38-10.22-2.16l-57.39,37.36 v-75.62c0-4.09-3.31-7.39-7.36-7.39c-4.08,0-7.38,3.3-7.38,7.39v89.1v0.01v44.9c0,4.07,3.3,7.37,7.38,7.37 c4.06,0,7.36-3.3,7.36-7.37v-40.79l13.06-8.49l42.58,53.86c1.45,1.85,3.61,2.81,5.78,2.81c1.61,0,3.21-0.51,4.57-1.59 c3.2-2.53,3.74-7.17,1.22-10.37L107.19,495.73z"></path> <path class="st0" d="M674.58,668.65H7.37c-4.08,0-7.37-3.31-7.37-7.38V338.74c0-4.09,3.3-7.39,7.37-7.39h667.2 c4.08,0,7.37,3.3,7.37,7.39v322.52C681.95,665.34,678.65,668.65,674.58,668.65 M14.74,653.89h652.46V346.11H14.74V653.89z"></path> <path class="st0" d="M992.61,456.15c-4.07,0-7.37,3.3-7.37,7.38v44.78c0,20.62-16.78,37.41-37.42,37.41 c-20.63,0-37.41-16.79-37.41-37.41v-44.78c0-4.09-3.31-7.38-7.37-7.38c-4.07,0-7.38,3.3-7.38,7.38v44.78 c0,28.76,23.41,52.17,52.17,52.17c28.77,0,52.17-23.41,52.17-52.17v-44.78C1000,459.45,996.69,456.15,992.61,456.15"></path> <path class="st1" d="M197.35,470.94c0-4.13-3.39-7.11-7-6.14c-2.43,0.65-4.74,1.64-6.93,3.04c-3.46,2.21-6.27,5.2-8.45,8.93 c-2.09,3.58-3.41,7.5-3.97,11.75c-0.28,2.1-0.24,4.08,0.89,5.9c1.36,2.18,3.84,3.2,6.19,2.46c2.16-0.68,3.81-3.04,4-5.59 c0.28-3.67,1.55-6.87,3.8-9.55c1.94-2.31,4.31-3.77,7.05-4.52C195.67,476.46,197.35,474.04,197.35,470.94 M162.93,491.66 c0.04-7.54,1.85-14.7,5.64-21.12c4.45-7.55,10.58-12.68,18.26-15.33c6.47-2.22,12.97-2.2,19.46-0.03c5.42,1.81,10.1,5,14.12,9.46 c2.23,2.46,5,2.49,7.22,0.02c3.79-4.22,8.2-7.3,13.26-9.13c6.56-2.37,13.2-2.53,19.83-0.35c8.33,2.75,14.77,8.36,19.39,16.61 c2.58,4.62,4.1,9.68,4.72,15.09c0.98,8.65-0.43,16.76-4.31,24.3c-2.47,4.8-5.76,8.76-9.78,11.97c-2.28,1.82-4.37,3.93-6.54,5.92 c-7.6,6.98-15.18,13.97-22.77,20.97c-4.74,4.37-9.49,8.75-14.23,13.14c-1.84,1.71-3.85,1.78-5.74,0.07 c-3.52-3.18-7.02-6.4-10.53-9.61c-6.34-5.79-12.68-11.58-19.01-17.37c-4.4-4.02-8.78-8.09-13.22-12.07 c-1.75-1.57-3.63-2.93-5.25-4.67c-4.1-4.39-7.04-9.61-8.81-15.66C163.5,499.97,162.95,495.96,162.93,491.66"></path> </g> </svg>