<?xml version="1.0" encoding="UTF-8"?> <svg xmlns="http://www.w3.org/2000/svg" width="826" height="119" viewBox="0 0 826 119" fill="none"> <g clip-path="url(#clip0_1025_1080)"> <path fill-rule="evenodd" clip-rule="evenodd" d="M11.5999 29.4023V78.7133H42.3109V89.1213H0.337891V29.4023H11.5999Z" fill="white"></path> <path fill-rule="evenodd" clip-rule="evenodd" d="M101.18 89.1213H56.4766V29.4023H101.18V40.3223H67.6516V54.0583H99.9846V64.5513H67.6516V78.0303H101.18V89.1213Z" fill="white"></path> <path fill-rule="evenodd" clip-rule="evenodd" d="M149.64 89.3773H137.952L113.126 29.4023H125.752L143.753 75.8973L161.839 29.4023H174.465L149.64 89.3773Z" fill="white"></path> <path fill-rule="evenodd" clip-rule="evenodd" d="M232.31 89.1213H187.607V29.4023H232.31V40.3223H198.783V54.0583H231.116V64.5513H198.783V78.0303H232.31V89.1213Z" fill="white"></path> <path fill-rule="evenodd" clip-rule="evenodd" d="M258.676 29.4023V78.7133H289.389V89.1213H247.415V29.4023H258.676Z" fill="white"></path> <path fill-rule="evenodd" clip-rule="evenodd" d="M484.651 39.6403H465.713V29.4023H514.852V39.6403H495.913V89.1213H484.651V39.6403Z" fill="white"></path> <path fill-rule="evenodd" clip-rule="evenodd" d="M581.058 89.1214H567.663L550.26 69.1584H539.425V89.1214H528.164V29.3174C537.634 29.3174 547.102 29.4024 556.572 29.4024C570.649 29.4884 578.071 38.8724 578.071 49.1954C578.071 57.3854 574.317 65.6604 562.971 67.9644L581.058 88.3544V89.1214ZM539.425 39.8964V59.0064H556.572C563.739 59.0064 566.81 54.2284 566.81 49.4514C566.81 44.6744 563.653 39.8964 556.572 39.8964H539.425Z" fill="white"></path> <path fill-rule="evenodd" clip-rule="evenodd" d="M634.466 77.8593H603.241L598.123 89.1213H585.923L612.711 29.4023H624.996L651.784 89.1213H639.499L634.466 77.8593ZM618.854 41.9433L607.763 67.3663H629.944L618.854 41.9433Z" fill="white"></path> <path fill-rule="evenodd" clip-rule="evenodd" d="M685.912 89.3773H674.225L649.399 29.4023H662.025L680.026 75.8973L698.112 29.4023H710.738L685.912 89.3773Z" fill="white"></path> <path fill-rule="evenodd" clip-rule="evenodd" d="M768.585 89.1213H723.882V29.4023H768.585V40.3223H735.058V54.0583H767.391V64.5513H735.058V78.0303H768.585V89.1213Z" fill="white"></path> <path fill-rule="evenodd" clip-rule="evenodd" d="M794.95 29.4023V78.7133H825.661V89.1213H783.688V29.4023H794.95Z" fill="white"></path> <path fill-rule="evenodd" clip-rule="evenodd" d="M438.064 59.3226C438.064 91.8456 411.699 118.211 379.176 118.211C346.652 118.211 320.287 91.8456 320.287 59.3226C320.287 26.7996 346.652 0.433594 379.176 0.433594C411.699 0.433594 438.064 26.7996 438.064 59.3226Z" fill="url(#paint0_linear_1025_1080)"></path> <path fill-rule="evenodd" clip-rule="evenodd" d="M379.176 23.9893C361.755 23.9893 347.632 38.1123 347.632 55.5333C347.632 57.5803 347.809 58.8013 347.809 58.8013C348.025 60.2953 349.436 61.5183 350.946 61.5183H407.406C408.915 61.5183 410.327 60.2953 410.543 58.8013C410.543 58.8013 410.72 57.5803 410.72 55.5333C410.72 38.1123 396.597 23.9893 379.176 23.9893Z" fill="#1E1E1E"></path> <path fill-rule="evenodd" clip-rule="evenodd" d="M424.186 69.7514C424.186 71.4124 422.704 72.7704 420.893 72.7704H337.184C335.373 72.7704 333.891 71.4124 333.891 69.7514C333.891 68.0914 335.373 66.7324 337.184 66.7324H420.893C422.704 66.7324 424.186 68.0914 424.186 69.7514Z" fill="#1E1E1E"></path> <path fill-rule="evenodd" clip-rule="evenodd" d="M411.836 81.2788C411.836 82.9398 410.354 84.2978 408.542 84.2978H349.535C347.723 84.2978 346.241 82.9398 346.241 81.2788C346.241 79.6188 347.723 78.2598 349.535 78.2598H408.542C410.354 78.2598 411.836 79.6188 411.836 81.2788Z" fill="#1E1E1E"></path> <path fill-rule="evenodd" clip-rule="evenodd" d="M397.015 92.8051C397.015 94.4661 395.533 95.8241 393.722 95.8241H364.355C362.544 95.8241 361.062 94.4661 361.062 92.8051C361.062 91.1451 362.544 89.7861 364.355 89.7861H393.722C395.533 89.7861 397.015 91.1451 397.015 92.8051Z" fill="#1E1E1E"></path> </g> <defs> <linearGradient id="paint0_linear_1025_1080" x1="6209.14" y1="0.433594" x2="6209.14" y2="11778.1" gradientUnits="userSpaceOnUse"> <stop stop-color="white"></stop> <stop offset="1" stop-color="#3FA9F5"></stop> </linearGradient> <clipPath id="clip0_1025_1080"> <rect width="826" height="119" fill="white"></rect> </clipPath> </defs> </svg> 