<?xml version="1.0" encoding="UTF-8"?> <svg xmlns="http://www.w3.org/2000/svg" width="1801" height="484" viewBox="0 0 1801 484" fill="none"> <path d="M87 214.93C87 229.183 81.6667 240.643 71 249.31C60.3333 257.976 42.7967 263.24 18.39 265.1V309.27H0V173H38.78C52.78 173 64.3067 176.666 73.36 184C82.4533 191.16 87 201.47 87 214.93ZM68.21 216.33C68.21 208.063 65.41 201.6 59.81 196.94C54.21 192.28 46.8167 189.946 37.63 189.94H18.39V247.94C51.57 246.32 68.16 235.783 68.16 216.33H68.21ZM208.57 309.27H188.33L171.74 266.7H117.38L100.79 309.27H81.4L137.16 169.35H152.56L208.57 309.27ZM165.8 250.51L144.61 195.74H144.41L123.41 250.51H165.8ZM331.7 309.27H308.7L252.93 246.91V245.91C270.263 243.376 282.19 239.643 288.71 234.71C291.895 232.416 294.472 229.378 296.215 225.861C297.958 222.344 298.814 218.454 298.71 214.53C298.71 206.93 295.91 200.93 290.31 196.53C284.85 192.13 277.257 189.93 267.53 189.93H249.7V309.27H231.31V173H270.08C284.34 173 295.733 176.466 304.26 183.4C312.927 190.186 317.26 199.913 317.26 212.58C317.26 223.113 314.46 231.78 308.86 238.58C303.4 245.38 294.34 250.713 281.68 254.58V254.98L331.7 309.27ZM375.26 309.27H356.82V173H426.82V190.19H375.21V235.76H424.78V252.9H375.21L375.26 309.27ZM536.18 301.27C527.793 308.99 516.267 312.853 501.6 312.86C486.933 312.866 475.267 309.003 466.6 301.27C458.08 293.536 453.817 282.473 453.81 268.08V173H472.2V265.7C472.2 275.7 474.733 283.226 479.8 288.28C484.86 293.213 491.987 295.68 501.18 295.68C510.373 295.68 517.503 293.213 522.57 288.28C527.77 283.22 530.37 275.693 530.37 265.7V173H548.96V268.14C548.94 282.506 544.663 293.553 536.13 301.28L536.18 301.27ZM724.53 309.27H706.09L697.89 215.93H697.69L654.69 312.87H653.29L610.11 215.73H609.91L602.12 309.27H583.76L595.76 170.55H609.76L654.14 274.09H654.34L698.51 170.55H712.51L724.53 309.27Z" fill="white"></path> <path d="M1180.74 311.069H1109.58V174.749H1128V293.879H1180.77L1180.74 311.069ZM1282.33 311.069H1207.17V174.749H1277.17V191.939H1225.6V232.319H1275.17V249.709H1225.6V293.879H1282.37L1282.33 311.069ZM1426.24 311.069H1406.05L1389.46 268.489H1335.09L1318.5 311.069H1299.11L1354.88 171.149H1370.27L1426.24 311.069ZM1383.46 252.299L1362.28 197.539H1362.08L1341.08 252.299H1383.46ZM1552.16 205.129C1558.69 215.529 1561.95 228.123 1561.96 242.909C1561.97 257.696 1558.7 270.363 1552.16 280.909C1546.26 290.859 1537.57 298.856 1527.16 303.909C1516.9 308.709 1505.31 311.109 1492.38 311.109H1449V174.749H1492.38C1505.17 174.749 1516.69 177.216 1526.96 182.149C1537.36 186.943 1545.76 194.603 1552.16 205.129ZM1529 280.689C1538.46 271.889 1543.19 259.296 1543.19 242.909C1543.19 226.523 1538.46 213.929 1529 205.129C1519.53 196.336 1507.27 191.939 1492.22 191.939H1467.43V293.879H1492.22C1507.27 293.879 1519.53 289.483 1529 280.689ZM1666.3 311.069H1591.15V174.749H1661.1V191.939H1609.53V232.319H1659.1V249.709H1609.53V293.879H1666.3V311.069ZM1800.02 311.069H1777.02L1721.26 248.709V247.709C1738.59 245.183 1750.52 241.449 1757.04 236.509C1760.22 234.215 1762.8 231.177 1764.54 227.66C1766.29 224.143 1767.14 220.253 1767.04 216.329C1767.04 208.729 1764.24 202.729 1758.64 198.329C1753.18 193.929 1745.59 191.729 1735.86 191.729H1718.07V311.069H1699.68V174.749H1738.46C1752.72 174.749 1764.11 178.213 1772.64 185.139C1781.31 191.939 1785.64 201.669 1785.64 214.329C1785.64 224.849 1782.84 233.516 1777.24 240.329C1771.78 247.129 1762.72 252.463 1750.06 256.329V256.729L1800.02 311.069Z" fill="white"></path> <path d="M1038.23 456.53L1022.54 483.41H806L915.16 93.25L963.61 88L860.51 456.53H1038.23Z" fill="url(#paint0_linear_1025_1003)"></path> <path d="M868.94 194.6C864.191 192.062 859.833 188.852 856 185.07V28.4595H890C906.8 28.4595 921.553 31.1829 934.26 36.6296C947.433 41.6229 958.33 48.6562 966.95 57.7296C975.492 66.6736 981.994 77.3621 986.01 89.0595C990.537 100.789 992.846 113.257 992.82 125.83C992.82 150.336 985.33 170.083 970.35 185.07C959.89 195.863 946.713 202.763 930.82 205.77L922 237.5H928.82C945.613 237.5 961.047 234.55 975.12 228.65C988.718 223.063 1001.01 214.713 1011.21 204.13C1021.71 193.599 1030.04 181.105 1035.72 167.36C1041.7 152.418 1044.71 136.453 1044.57 120.36C1044.57 103.113 1041.85 87.2229 1036.4 72.6896C1031.52 58.3386 1023.09 45.4556 1011.89 35.2395C1000.56 24.3529 985.803 15.9562 967.63 10.0495C949.47 3.68954 927.68 0.512875 902.26 0.519542H809V411.13L856 405.68V221.84C861.992 225.513 868.387 228.483 875.06 230.69L876.75 231.24L885 201.77L883.93 201.41C878.77 199.518 873.759 197.242 868.94 194.6Z" fill="white"></path> <defs> <linearGradient id="paint0_linear_1025_1003" x1="921.82" y1="87.9502" x2="844.82" y2="336.45" gradientUnits="userSpaceOnUse"> <stop stop-color="white" stop-opacity="0"></stop> <stop offset="1" stop-color="white"></stop> </linearGradient> </defs> </svg> 