<?xml version="1.0" encoding="UTF-8"?> <svg xmlns="http://www.w3.org/2000/svg" width="291" height="121" viewBox="0 0 291 121" fill="none"> <g clip-path="url(#clip0_1025_1043)"> <path d="M0 37.7795H28.63C41.4994 60.1393 60.0579 78.6943 82.42 91.5595V120.18C63.2968 113.659 45.9238 102.839 31.6371 88.5524C17.3505 74.2658 6.53073 56.8928 0.0100098 37.7695" fill="#DADADA"></path> <path d="M82.4196 37.7803V91.5703C60.0599 78.7009 41.5049 60.1424 28.6396 37.7803H82.4196Z" fill="#787878"></path> <path d="M82.4198 37.7798H28.6298C21.8316 25.9669 16.741 13.2506 13.5098 0.00976695H44.6398C49.6006 0.00845351 54.5132 0.984443 59.0968 2.88197C63.6804 4.77951 67.8453 7.56142 71.3537 11.0688C74.862 14.5762 77.645 18.7404 79.5437 23.3235C81.4425 27.9066 82.4198 32.8189 82.4198 37.7798Z" fill="#DADADA"></path> <path d="M120.19 75.5503V106.66C106.949 103.439 94.2323 98.3548 82.4199 91.5603V37.7803C92.4381 37.7829 102.045 41.7645 109.128 48.8493C116.211 55.9341 120.19 65.5421 120.19 75.5603" fill="white"></path> <path d="M82.1104 0.00976562C84.1721 9.32191 88.8502 17.8517 95.5943 24.5958C102.338 31.34 110.868 36.018 120.18 38.0798V0.00976562H82.1104Z" fill="#DADADA"></path> <path d="M229.53 85.1002L213.64 62.8902V85.1002H201.72V37.6201H213.63V58.3802L227.71 37.6201H240.71L225.42 59.1002L243.47 85.1002H229.57H229.53ZM267.42 76.7902C275.18 76.7902 278.07 70.4702 278.07 61.4502C278.07 53.3302 275.72 46.6501 267.78 46.6501C263.45 46.6501 260.19 47.7302 257.85 49.7202C257.31 52.7902 257.48 57.6602 257.48 60.7202C257.48 70.4702 260.55 76.7902 267.41 76.7902M256.58 41.9502C260.531 38.7825 265.417 37.0073 270.48 36.9001C284.02 36.9001 290.48 46.4702 290.48 60.1902C290.48 77.5202 280.73 86.3701 266.65 86.3701C252.75 86.3701 245.16 77.5201 245.16 57.1201C245.16 40.1201 249 28.4602 254.91 23.0002C261.65 16.7702 263.76 16.8601 271.7 14.8701C276.58 13.6101 281.27 12.8702 283.07 12.1602L287.4 21.9102C285.05 23.3602 280.72 24.2602 272.06 26.0602C262.13 28.0602 257.61 31.4702 256.53 41.9502M182.87 46.6402V85.1002H171.21V46.6501H158.75V37.6501H195.42V46.6501H182.95L182.87 46.6402Z" fill="white"></path> </g> <defs> <clipPath id="clip0_1025_1043"> <rect width="290.55" height="120.19" fill="white"></rect> </clipPath> </defs> </svg> 